<?xml version="1.0" encoding="utf-8"?>
<!-- Generator: Adobe Illustrator 16.0.0, SVG Export Plug-In . SVG Version: 6.00 Build 0)  -->
<!DOCTYPE svg PUBLIC "-//W3C//DTD SVG 1.1//EN" "http://www.w3.org/Graphics/SVG/1.1/DTD/svg11.dtd">
<svg version="1.1" id="Layer_1" xmlns="http://www.w3.org/2000/svg" xmlns:xlink="http://www.w3.org/1999/xlink" x="0px" y="0px"
	 width="2762.471px" height="2762.471px" viewBox="0 0 2762.471 2762.471" enable-background="new 0 0 2762.471 2762.471"
	 xml:space="preserve">
<rect x="6275.544" fill="#58595B" width="2762.468" height="2762.471"/>
<rect x="6275.544" y="3064.95" fill="#58595B" width="2762.468" height="2762.471"/>
<g>
	<g>
		<path fill="#F47D2B" stroke="#F47D2B" stroke-width="0.6254" stroke-miterlimit="10" d="M7474.559,2222.754
			c0,6.247-2.03,11.324-6.105,15.263c-4.074,3.969-9.24,5.934-15.477,5.934h-77.002c-6.236,0-11.332-1.965-15.286-5.934
			c-3.94-3.938-5.923-9.016-5.923-15.263v-256.602c0-6.247,1.982-11.34,5.923-15.285c3.954-3.961,9.05-5.912,15.286-5.912h77.002
			c6.236,0,11.402,1.951,15.477,5.912c4.075,3.945,6.105,9.038,6.105,15.285v69.554h-26.738v-67.269h-66.499v252.009h66.499v-73.567
			h26.738V2222.754z"/>
		<path fill="#F47D2B" stroke="#F47D2B" stroke-width="0.6254" stroke-miterlimit="10" d="M7641.553,2243.95h-26.365l-10.513-66.471
			h-59.423l-10.504,66.471h-25.605v-0.744l53.307-299.018h26.183L7641.553,2243.95z M7601.239,2153.975l-26.174-162.032
			l-26.363,162.032H7601.239z"/>
		<path fill="#F47D2B" stroke="#F47D2B" stroke-width="0.6254" stroke-miterlimit="10" d="M7804.715,2243.95h-27.891
			l-55.602-160.104l3.63-5.36h47.382v-110.049h-68.206v275.513h-26.558v-298.995h100.123c6.236,0,11.329,1.951,15.271,5.912
			c3.953,3.945,5.925,9.038,5.925,15.285v113.488c0,14.392-9.685,21.606-29.031,21.606c-1.911,0-4.711-0.127-8.413-0.291
			c-3.7-0.193-6.369-0.29-8.025-0.29C7770.515,2148.301,7787.651,2196.056,7804.715,2243.95z"/>
		<path fill="#F47D2B" stroke="#F47D2B" stroke-width="0.6254" stroke-miterlimit="10" d="M7958.684,2222.754
			c0,6.247-1.947,11.324-5.842,15.263c-3.881,3.969-8.939,5.934-15.177,5.934h-75.283c-6.235,0-11.368-1.965-15.382-5.934
			c-4.013-3.938-6.02-9.016-6.02-15.263v-75.875h26.558v73.567h64.588v-71.26l-82.542-99.736c-5.731-6.872-8.604-14.444-8.604-22.73
			v-60.567c0-6.247,2.007-11.34,6.02-15.285c4.014-3.961,9.146-5.912,15.382-5.912h75.283c6.237,0,11.296,1.951,15.177,5.912
			c3.895,3.945,5.842,9.038,5.842,15.285v69.554h-26.558v-67.269h-64.588v63.062l82.926,99.737c5.468,6.611,8.22,14.057,8.22,22.351
			V2222.754z"/>
	</g>
	<g>
		<path fill-rule="evenodd" clip-rule="evenodd" fill="#FFFFFF" d="M7973.319,1666.338c47.755-31.434,65.767-43.28,117.775-77.506
			c-289.912-20.355-576.399-19.32-868.102-0.357c52.716,34.271,58.951,38.306,107.596,69.934
			c-1.203,2.137,53.93,44.248,52.729,46.384c-59.649-24.755-133.238-61.937-192.891-86.715
			c-147.479-61.304-303.01-82.888-460.775-93.795c-17.773-1.207-35.918-3.797-52.849-9.091
			c-33.348-10.379-38.693-34.174-11.165-56.428c44.559-35.998,98.442-41.098,152.744-35.06
			c10.995,1.221,23.864,17.757,29.416,30.109c21.906,48.67,62.763,57.202,94.5,16.007
			c117.064-151.958,273.004-230.477,462.543-238.242c160.096-6.559,320.612-9.828,480.771-6.343
			c197.864,4.281,361.722,84.065,485.638,241.555c36.287,46.101,72.951,38.12,98.439-16.126
			c5.984-12.709,24.586-29.871,34.896-28.359c47.115,7.065,93.945,18.196,139.523,32.253c10.551,3.246,23.119,24.971,21.293,35.983
			c-1.668,10.356-20.26,23.475-32.961,25.47c-53.078,8.391-106.598,15.188-160.217,18.628
			c-165.314,10.625-316.325,70.053-466.45,133.145c-19.503,8.197-79.813,39.653-99.208,48.089
			C7905.234,1713.489,7974.654,1668.698,7973.319,1666.338z M7975.338,1278.758c26.58,44.552,36.928,64.506,0.998,101.323
			c-25.884,26.483-53.102,52.75-73.589,83.253c-26.569,39.535-14.085,65.585,33.176,73.44c28.877,4.832,58.881,2.762,88.372,3.849
			c103.99,3.797,197.947-8.22,301.794-33.146C8250.098,1370.588,8139.99,1277.865,7975.338,1278.758z"/>
		<path fill="#FFFFFF" d="M8468.283,1942.744c0,0,1.273-0.477,3.689-1.415c2.428-0.871,5.996-2.33,10.227-4.378
			c4.289-1.846,9.324-4.779,15.129-7.81c5.707-3.313,12.004-7.185,18.791-11.563c6.721-4.445,13.82-9.537,21.283-14.973
			c7.379-5.502,14.816-11.727,22.518-18.069c7.549-6.537,15.021-13.625,22.221-21.033c7.4-7.282,13.854-15.427,19.73-23.691
			c2.67-4.207,5.539-8.369,7.438-12.717l0.807-1.585l0.42-0.79l0.203-0.409l0.061-0.097c-0.672,1.921-0.18,0.454-0.313,0.864
			l0.074-0.238l1.141-3.916l2.271-7.766c1.861-5.36,1.934-9.857,2.957-14.615l1.213-7.014c0.18-2.501,0.346-5.003,0.539-7.453
			c0.912-9.806,1.068-19.492,1.203-28.717c-0.086-9.209-0.291-18.002-0.529-26.125c-0.59-8.101-0.625-15.62-1.152-22.254
			c-0.41-6.634-0.771-12.448-1.07-17.258c-0.662-9.567-0.867-15.114-0.867-15.114s1.852,5.212,4.748,14.414
			c2.766,9.254,6.455,22.567,9.613,38.909c1.49,8.175,3.027,17.094,3.977,26.654c0.879,9.567,1.924,19.685,1.443,30.376
			c-0.035,2.673-0.049,5.338-0.084,8.056c-0.301,2.836-0.613,5.673-0.9,8.532c-0.723,5.644-1.07,11.964-2.754,16.849l-2.113,7.81
			l-1.047,3.938l-0.084,0.238l-0.383,1.132l-0.049,0.119l-0.242,0.528l-0.49,1.035l-0.975,2.07
			c-2.428,5.695-5.635,10.646-8.783,15.687c-6.971,9.448-14.385,18.315-22.52,25.984c-7.883,7.981-16.584,14.638-24.852,21.152
			c-8.445,6.291-16.99,11.823-25.234,16.722c-8.254,4.974-16.354,9.084-23.938,12.643c-7.584,3.581-14.791,6.299-21.219,8.555
			c-6.504,2.092-12.15,3.774-17.055,4.66c-4.768,1.206-8.531,1.423-11.102,1.683
			C8469.641,1942.625,8468.283,1942.744,8468.283,1942.744z"/>
		<path fill="#FFFFFF" d="M6850.681,1942.744c0,0-1.368-0.119-3.94-0.388c-2.584-0.26-6.346-0.477-11.127-1.683
			c-4.892-0.886-10.552-2.568-17.041-4.66c-6.428-2.256-13.637-4.951-21.209-8.555c-7.594-3.559-15.706-7.669-23.937-12.62
			c-8.255-4.921-16.812-10.453-25.235-16.744c-8.291-6.515-16.979-13.171-24.862-21.152c-8.123-7.668-15.563-16.536-22.521-25.984
			c-3.146-5.018-6.367-9.992-8.781-15.687l-0.986-2.07l-0.469-1.035l-0.254-0.528l-0.06-0.119l-0.384-1.132l-0.059-0.238
			l-1.058-3.938l-2.104-7.81c-1.706-4.884-2.055-11.205-2.753-16.849c-0.311-2.859-0.612-5.696-0.914-8.532
			c-0.021-2.718-0.048-5.383-0.082-8.056c-0.469-10.691,0.578-20.81,1.43-30.376c0.972-9.56,2.498-18.479,3.989-26.654
			c3.147-16.342,6.85-29.655,9.614-38.909c2.906-9.202,4.734-14.414,4.734-14.414s-0.205,5.547-0.867,15.114
			c-0.287,4.81-0.648,10.625-1.057,17.258c-0.529,6.634-0.578,14.153-1.166,22.254c-0.227,8.123-0.432,16.916-0.539,26.125
			c0.156,9.225,0.313,18.911,1.235,28.717c0.169,2.449,0.351,4.951,0.528,7.453l1.227,7.014c1.012,4.757,1.082,9.254,2.945,14.615
			l2.271,7.766l1.142,3.916l0.072,0.238c0.313,0.916-0.396-1.109-0.3-0.864l0.048,0.097l0.205,0.409l0.408,0.79l0.816,1.608
			c1.888,4.326,4.771,8.488,7.438,12.694c5.877,8.287,12.33,16.409,19.73,23.691c7.199,7.408,14.686,14.496,22.209,21.033
			c7.714,6.343,15.151,12.59,22.541,18.069c7.427,5.436,14.541,10.527,21.271,15.002c6.777,4.349,13.085,8.22,18.793,11.533
			c5.791,3.03,10.828,5.964,15.129,7.81c4.242,2.048,7.797,3.507,10.227,4.378
			C6849.395,1942.268,6850.681,1942.744,6850.681,1942.744z"/>
		<g>
			<line fill="#FFFFFF" x1="7127.255" y1="1854.904" x2="7433.668" y2="1854.904"/>
			<rect x="7127.255" y="1848.196" fill="#FFFFFF" width="306.413" height="13.409"/>
		</g>
		<g>
			<line fill="#FFFFFF" x1="7891.654" y1="1854.904" x2="8198.064" y2="1854.904"/>
			<rect x="7891.654" y="1848.196" fill="#FFFFFF" width="306.411" height="13.409"/>
		</g>
		<path fill="#FFFFFF" d="M8555.33,1643.749c-14.563-8.845-44.195-9.731-57.787-0.551c-95.016,64.193-187.59,131.96-284.264,200.941
			c103.75-9.016,206.816-18.39,303.707-57.299c23.096-9.277,44.52-30.109,59.303-50.874
			C8595.117,1709.476,8584.639,1661.506,8555.33,1643.749z M8553.299,1718.083c-7.871,13.558-19.525,22.522-31.193,29.871
			c-11.838,7.214-24.189,12.545-36.027,16.417c-11.834,3.872-23.117,6.366-32.984,7.669c-9.781,1.511-18.133,1.779-24.01,1.779
			c-5.852-0.03-9.266-0.484-9.266-0.484s2.754-2.063,7.631-5.189c4.881-3.149,11.801-7.498,20.141-12.21
			c16.439-9.88,38.982-20.929,59.016-33.191c9.9-6.008,19.346-12.665,24.848-19.104c2.764-3.224,4.627-6.15,5.469-9.105
			c0.707-2.934,0.674-6.493-0.35-10.148c-1.236-3.604-2.943-7.207-4.842-10.379c-1.947-3.03-3.75-5.815-5.406-8.175
			c-3.631-4.542-5.518-7.423-5.518-7.423s3.354,0.767,8.883,2.621c2.678,1.154,6.234,2.568,9.912,4.899
			c1.826,1.251,3.75,2.598,5.791,3.991c1.887,1.735,3.881,3.604,5.779,5.889c3.689,4.638,7.271,11.131,7.945,19.253
			C8559.729,1703.155,8557.145,1711.404,8553.299,1718.083z"/>
		<path fill="#FFFFFF" d="M6745.98,1735.966c14.77,20.765,36.185,41.597,59.29,50.874c96.89,38.909,199.97,48.283,303.721,57.299
			c-96.686-68.98-189.275-136.748-284.277-200.941c-13.591-9.18-43.212-8.294-57.786,0.551
			C6737.606,1661.506,6727.151,1709.476,6745.98,1735.966z M6763.141,1695.062c0.686-8.123,4.24-14.615,7.942-19.253
			c1.911-2.286,3.894-4.154,5.78-5.889c2.043-1.393,3.979-2.74,5.803-3.991c3.654-2.331,7.235-3.745,9.902-4.899
			c5.528-1.854,8.894-2.621,8.894-2.621s-1.888,2.881-5.528,7.423c-1.658,2.36-3.449,5.145-5.407,8.175
			c-1.911,3.172-3.604,6.775-4.843,10.379c-1.021,3.655-1.045,7.214-0.337,10.148c0.83,2.956,2.704,5.881,5.457,9.105
			c5.503,6.44,14.936,13.096,24.86,19.104c20.02,12.262,42.564,23.311,59.015,33.191c8.339,4.713,15.261,9.061,20.128,12.21
			c4.877,3.127,7.643,5.189,7.643,5.189s-3.413,0.454-9.276,0.484c-5.864,0-14.228-0.268-23.998-1.779
			c-9.866-1.303-21.149-3.797-32.984-7.669c-11.849-3.872-24.202-9.202-36.039-16.417c-11.645-7.349-23.324-16.313-31.196-29.871
			C6765.124,1711.404,6762.528,1703.155,6763.141,1695.062z"/>
		<path fill="#FFFFFF" d="M7565.922,1910.662h-55.24c-19.203,0-31.918-1.109-38.118-3.291c-6.2-2.188-10.72-6.276-13.554-12.262
			c-2.836-5.956-4.254-15.167-4.254-27.563v-17.042c0-11.942,1.97-20.81,5.9-26.602c3.928-5.792,11.414-9.925,22.459-12.426
			c-9.902-2.263-16.547-5.532-19.912-9.761s-5.049-11.704-5.049-22.448c0-15.858,2.381-27.346,7.152-34.509
			c4.758-7.162,11.019-11.875,18.77-14.228c7.75-2.353,19.152-3.506,34.199-3.506h47.646V1910.662z M7508.242,1759.441
			c-1.706,0.603-3.077,2.092-4.146,4.378c-1.057,2.331-1.586,6.343-1.586,12.091c0,10.885,0.648,17.489,1.922,19.797
			c1.299,2.308,4.277,3.439,8.964,3.439c1.143,0,2.729,0.075,4.759,0.142v-40.852
			C7513.252,1758.503,7509.936,1758.868,7508.242,1759.441z M7505.008,1830.7c-1.656,1.661-2.498,6.418-2.498,14.28v17.131
			c0,7.431,0.924,12.069,2.787,13.968c1.852,1.898,6.141,2.933,12.857,3.171v-51.387
			C7511.054,1828.079,7506.68,1829.047,7505.008,1830.7z"/>
		<path fill="#FFFFFF" d="M7730.404,1727.024v183.638h-41.746l-0.06-123.964l-16.617,123.964h-29.61l-17.519-121.149l-0.062,121.149
			h-41.746v-183.638h61.802c1.828,11.026,3.713,24.033,5.658,39.028l6.79,46.719l10.971-85.747H7730.404z"/>
		<path fill="#FFFFFF" d="M7749.572,1727.024h47.646c15.044,0,26.448,1.154,34.198,3.506c7.751,2.353,13.999,7.066,18.783,14.228
			c4.757,7.163,7.136,18.65,7.136,34.509c0,10.744-1.683,18.219-5.046,22.448s-9.997,7.498-19.91,9.761
			c11.041,2.501,18.527,6.634,22.458,12.426c3.94,5.792,5.9,14.66,5.9,26.602v17.042c0,12.396-1.418,21.606-4.255,27.563
			c-2.837,5.985-7.341,10.073-13.554,12.262c-6.202,2.182-18.904,3.291-38.116,3.291h-55.24V1727.024z M7797.326,1758.436v40.852
			c2.042-0.067,3.628-0.142,4.769-0.142c4.688,0,7.669-1.131,8.953-3.439c1.286-2.308,1.936-8.912,1.936-19.797
			c0-5.748-0.528-9.761-1.586-12.091c-1.07-2.286-2.439-3.775-4.146-4.378C7805.545,1758.868,7802.24,1758.503,7797.326,1758.436z
			 M7797.326,1827.863v51.387c6.739-0.238,11.03-1.273,12.88-3.171c1.851-1.899,2.777-6.537,2.777-13.968v-17.131
			c0-7.862-0.83-12.62-2.502-14.28C7808.825,1829.047,7804.44,1828.079,7797.326,1827.863z"/>
	</g>
</g>
<g>
	<text transform="matrix(1 0 0 1 6557.2749 1133.8037)" fill="#FFFFFF" font-family="'CooHew-Bold'" font-size="413.4166">POJAZDÓW</text>
	<text transform="matrix(1 0 0 1 6580.1445 721.4834)" fill="#FFFFFF" font-family="'CooHew-Bold'" font-size="221.51">STUDIO PIELĘGNACJI</text>
</g>
<g>
	<g>
		<path fill="#F47D2B" stroke="#F47D2B" stroke-width="0.6254" stroke-miterlimit="10" d="M7477.215,4943.649
			c0,6.247-2.033,11.317-6.105,15.256c-4.072,3.969-9.239,5.941-15.479,5.941h-77.001c-6.237,0-11.331-1.973-15.285-5.941
			c-3.94-3.938-5.925-9.009-5.925-15.256v-256.602c0-6.254,1.984-11.347,5.925-15.285c3.954-3.969,9.048-5.911,15.285-5.911h77.001
			c6.239,0,11.406,1.942,15.479,5.911c4.072,3.938,6.105,9.031,6.105,15.285v69.547h-26.738v-67.269h-66.499v252.016h66.499v-73.566
			h26.738V4943.649z"/>
		<path fill="#F47D2B" stroke="#F47D2B" stroke-width="0.6254" stroke-miterlimit="10" d="M7644.209,4964.847h-26.363
			l-10.518-66.479h-59.42l-10.502,66.479h-25.607v-0.744l53.305-299.025h26.185L7644.209,4964.847z M7603.893,4874.863
			l-26.172-162.032l-26.363,162.032H7603.893z"/>
		<path fill="#F47D2B" stroke="#F47D2B" stroke-width="0.6254" stroke-miterlimit="10" d="M7807.37,4964.847h-27.891
			l-55.602-160.111l3.63-5.36h47.382v-110.049h-68.206v275.521h-26.558v-298.995h100.125c6.234,0,11.331,1.942,15.271,5.911
			c3.953,3.938,5.925,9.031,5.925,15.285v113.481c0,14.399-9.687,21.606-29.033,21.606c-1.909,0-4.709-0.119-8.411-0.291
			c-3.702-0.186-6.367-0.283-8.027-0.283C7773.171,4869.189,7790.307,4916.944,7807.37,4964.847z"/>
		<path fill="#F47D2B" stroke="#F47D2B" stroke-width="0.6254" stroke-miterlimit="10" d="M7961.338,4943.649
			c0,6.247-1.947,11.317-5.84,15.256c-3.881,3.969-8.939,5.941-15.177,5.941h-75.285c-6.235,0-11.365-1.973-15.38-5.941
			c-4.013-3.938-6.021-9.009-6.021-15.256v-75.874h26.558v73.566h64.59v-71.259l-82.542-99.737
			c-5.731-6.872-8.605-14.443-8.605-22.737v-60.561c0-6.254,2.009-11.347,6.021-15.285c4.015-3.969,9.145-5.911,15.38-5.911h75.285
			c6.237,0,11.296,1.942,15.177,5.911c3.893,3.938,5.84,9.031,5.84,15.285v69.547h-26.556v-67.269h-64.59v63.069l82.926,99.737
			c5.468,6.604,8.22,14.057,8.22,22.351V4943.649z"/>
	</g>
	<g>
		<path fill-rule="evenodd" clip-rule="evenodd" fill="#FFFFFF" d="M7975.975,4387.233c47.754-31.434,65.769-43.287,117.773-77.505
			c-289.912-20.363-576.399-19.328-868.102-0.365c52.716,34.271,58.955,38.306,107.598,69.934
			c-1.201,2.145,53.93,44.247,52.729,46.384c-59.651-24.748-133.24-61.93-192.891-86.707
			c-147.48-61.313-303.01-82.889-460.775-93.804c-17.772-1.198-35.918-3.797-52.851-9.083
			c-33.344-10.379-38.693-34.174-11.163-56.428c44.559-36.006,98.44-41.098,152.742-35.067
			c10.997,1.229,23.866,17.765,29.416,30.116c21.908,48.662,62.765,57.194,94.5,16.008
			c117.066-151.967,273.004-230.484,462.543-238.242c160.096-6.566,320.614-9.836,480.771-6.344
			c197.866,4.273,361.724,84.064,485.638,241.555c36.291,46.094,72.951,38.113,98.441-16.126
			c5.982-12.717,24.584-29.87,34.896-28.359c47.117,7.065,93.943,18.188,139.523,32.253c10.551,3.246,23.119,24.972,21.295,35.977
			c-1.672,10.355-20.262,23.482-32.963,25.477c-53.078,8.384-106.6,15.189-160.217,18.621
			c-165.313,10.625-316.325,70.061-466.448,133.145c-19.503,8.197-79.815,39.66-99.21,48.096
			C7907.888,4434.385,7977.308,4389.587,7975.975,4387.233z M7977.993,3999.647c26.582,44.56,36.929,64.506,0.998,101.322
			c-25.884,26.49-53.1,52.758-73.59,83.254c-26.568,39.533-14.082,65.585,33.179,73.447c28.875,4.832,58.881,2.762,88.37,3.842
			c103.992,3.797,197.949-8.22,301.796-33.139C8252.754,4091.478,8142.646,3998.761,7977.993,3999.647z"/>
		<path fill="#FFFFFF" d="M8470.938,4663.64c0,0,1.273-0.483,3.689-1.422c2.428-0.863,5.998-2.33,10.227-4.37
			c4.291-1.854,9.324-4.787,15.129-7.81c5.709-3.321,12.006-7.192,18.795-11.563c6.717-4.445,13.818-9.545,21.281-14.973
			c7.377-5.502,14.816-11.727,22.518-18.078c7.549-6.536,15.021-13.624,22.219-21.025c7.402-7.281,13.855-15.426,19.732-23.698
			c2.668-4.206,5.539-8.36,7.438-12.709l0.807-1.586l0.42-0.796l0.205-0.41l0.059-0.097c-0.674,1.921-0.18,0.462-0.313,0.864
			l0.072-0.238l1.143-3.917l2.27-7.765c1.861-5.354,1.936-9.851,2.957-14.608l1.213-7.021c0.18-2.494,0.35-4.996,0.541-7.445
			c0.914-9.806,1.07-19.492,1.201-28.725c-0.084-9.201-0.287-18.002-0.529-26.125c-0.588-8.101-0.625-15.62-1.152-22.254
			c-0.408-6.634-0.768-12.449-1.07-17.251c-0.66-9.567-0.865-15.121-0.865-15.121s1.854,5.22,4.746,14.421
			c2.766,9.255,6.455,22.567,9.615,38.91c1.488,8.174,3.027,17.086,3.977,26.653c0.877,9.567,1.924,19.686,1.443,30.377
			c-0.037,2.665-0.049,5.339-0.086,8.049c-0.299,2.837-0.613,5.673-0.9,8.532c-0.721,5.65-1.068,11.972-2.752,16.849l-2.113,7.81
			l-1.047,3.946l-0.086,0.238l-0.383,1.132l-0.049,0.119l-0.24,0.528l-0.492,1.035l-0.973,2.063
			c-2.428,5.695-5.637,10.646-8.785,15.694c-6.969,9.448-14.385,18.315-22.518,25.977c-7.885,7.981-16.586,14.638-24.852,21.152
			c-8.447,6.299-16.992,11.823-25.234,16.729c-8.256,4.974-16.355,9.083-23.938,12.642c-7.582,3.582-14.793,6.292-21.221,8.555
			c-6.5,2.093-12.148,3.775-17.053,4.661c-4.77,1.198-8.529,1.415-11.102,1.683
			C8472.297,4663.514,8470.938,4663.64,8470.938,4663.64z"/>
		<path fill="#FFFFFF" d="M6853.337,4663.64c0,0-1.37-0.126-3.942-0.387c-2.584-0.268-6.344-0.484-11.127-1.683
			c-4.892-0.886-10.55-2.568-17.039-4.661c-6.428-2.263-13.639-4.951-21.209-8.555c-7.594-3.559-15.706-7.668-23.938-12.619
			c-8.253-4.929-16.81-10.453-25.232-16.752c-8.294-6.515-16.981-13.171-24.863-21.152c-8.123-7.661-15.562-16.528-22.519-25.977
			c-3.149-5.025-6.369-9.999-8.785-15.694l-0.984-2.063l-0.469-1.035l-0.252-0.528l-0.062-0.119l-0.386-1.132l-0.059-0.238
			l-1.058-3.946l-2.104-7.81c-1.705-4.877-2.055-11.198-2.751-16.849c-0.313-2.859-0.614-5.695-0.912-8.532
			c-0.025-2.71-0.049-5.384-0.086-8.049c-0.469-10.691,0.578-20.81,1.43-30.377c0.976-9.567,2.5-18.479,3.99-26.653
			c3.148-16.343,6.851-29.655,9.613-38.91c2.908-9.201,4.734-14.421,4.734-14.421s-0.205,5.554-0.863,15.121
			c-0.291,4.802-0.652,10.617-1.06,17.251c-0.528,6.634-0.575,14.153-1.165,22.254c-0.229,8.123-0.434,16.924-0.541,26.125
			c0.156,9.232,0.313,18.919,1.239,28.725c0.167,2.449,0.347,4.951,0.528,7.445l1.225,7.021c1.01,4.758,1.082,9.255,2.945,14.608
			l2.271,7.765l1.141,3.917l0.073,0.238c0.313,0.915-0.396-1.103-0.302-0.864l0.048,0.097l0.205,0.41l0.41,0.796l0.814,1.608
			c1.888,4.326,4.772,8.48,7.439,12.687c5.877,8.294,12.328,16.417,19.732,23.698c7.195,7.401,14.682,14.489,22.205,21.025
			c7.715,6.352,15.153,12.598,22.545,18.078c7.425,5.428,14.539,10.527,21.268,14.994c6.779,4.349,13.086,8.22,18.795,11.541
			c5.793,3.022,10.826,5.955,15.129,7.81c4.24,2.04,7.799,3.507,10.227,4.37C6852.051,4663.156,6853.337,4663.64,6853.337,4663.64z"
			/>
		<g>
			<line fill="#FFFFFF" x1="7129.911" y1="4575.793" x2="7436.323" y2="4575.793"/>
			<rect x="7129.911" y="4569.093" fill="#FFFFFF" width="306.412" height="13.408"/>
		</g>
		<g>
			<line fill="#FFFFFF" x1="7894.312" y1="4575.793" x2="8200.723" y2="4575.793"/>
			<rect x="7894.312" y="4569.093" fill="#FFFFFF" width="306.411" height="13.408"/>
		</g>
		<path fill="#FFFFFF" d="M8557.986,4364.638c-14.564-8.838-44.197-9.731-57.789-0.551
			c-95.012,64.192-187.59,131.967-284.264,200.94c103.754-9.009,206.818-18.383,303.707-57.292
			c23.096-9.276,44.523-30.115,59.303-50.881C8597.771,4430.372,8587.295,4382.401,8557.986,4364.638z M8555.955,4438.979
			c-7.869,13.55-19.525,22.515-31.195,29.87c-11.834,7.207-24.189,12.546-36.023,16.417c-11.838,3.864-23.121,6.366-32.986,7.661
			c-9.783,1.52-18.133,1.779-24.01,1.779c-5.852-0.021-9.264-0.477-9.264-0.477s2.752-2.069,7.629-5.196
			c4.879-3.142,11.799-7.497,20.141-12.203c16.439-9.88,38.98-20.937,59.014-33.19c9.902-6.009,19.346-12.665,24.85-19.105
			c2.764-3.224,4.625-6.156,5.467-9.113c0.711-2.933,0.674-6.484-0.346-10.14c-1.24-3.604-2.945-7.207-4.844-10.386
			c-1.947-3.023-3.748-5.815-5.408-8.168c-3.631-4.542-5.516-7.431-5.516-7.431s3.352,0.774,8.881,2.621
			c2.68,1.153,6.234,2.575,9.912,4.906c1.828,1.251,3.75,2.591,5.793,3.991c1.887,1.727,3.881,3.604,5.781,5.889
			c3.689,4.639,7.27,11.123,7.941,19.246C8562.385,4424.051,8559.801,4432.292,8555.955,4438.979z"/>
		<path fill="#FFFFFF" d="M6748.638,4456.854c14.768,20.766,36.181,41.604,59.288,50.881
			c96.892,38.909,199.968,48.283,303.72,57.292c-96.687-68.974-189.272-136.748-284.278-200.94
			c-13.589-9.181-43.21-8.287-57.786,0.551C6740.262,4382.401,6729.807,4430.372,6748.638,4456.854z M6765.795,4415.95
			c0.686-8.123,4.244-14.607,7.944-19.246c1.909-2.285,3.894-4.162,5.779-5.889c2.042-1.4,3.978-2.74,5.806-3.991
			c3.652-2.331,7.232-3.753,9.9-4.906c5.527-1.847,8.892-2.621,8.892-2.621s-1.886,2.889-5.528,7.431
			c-1.656,2.353-3.447,5.145-5.405,8.168c-1.911,3.179-3.605,6.782-4.843,10.386c-1.021,3.655-1.047,7.207-0.338,10.14
			c0.829,2.957,2.705,5.89,5.456,9.113c5.504,6.44,14.937,13.097,24.864,19.105c20.018,12.254,42.561,23.311,59.011,33.19
			c8.341,4.706,15.263,9.062,20.128,12.203c4.881,3.127,7.643,5.196,7.643,5.196s-3.413,0.455-9.276,0.477
			c-5.863,0-14.228-0.26-23.996-1.779c-9.865-1.295-21.15-3.797-32.986-7.661c-11.849-3.871-24.201-9.21-36.037-16.417
			c-11.645-7.355-23.324-16.32-31.196-29.87C6767.78,4432.292,6765.183,4424.051,6765.795,4415.95z"/>
		<path fill="#FFFFFF" d="M7568.577,4631.551h-55.24c-19.201,0-31.916-1.102-38.116-3.291c-6.202-2.188-10.72-6.269-13.554-12.255
			c-2.838-5.963-4.256-15.166-4.256-27.569V4571.4c0-11.95,1.972-20.817,5.9-26.609c3.93-5.792,11.416-9.925,22.459-12.427
			c-9.902-2.256-16.547-5.523-19.912-9.753c-3.363-4.229-5.047-11.704-5.047-22.447c0-15.866,2.381-27.347,7.15-34.509
			c4.759-7.162,11.019-11.875,18.77-14.229c7.752-2.359,19.156-3.514,34.199-3.514h47.646V4631.551z M7510.898,4480.337
			c-1.707,0.604-3.077,2.092-4.147,4.371c-1.057,2.33-1.586,6.35-1.586,12.091c0,10.885,0.648,17.496,1.924,19.804
			c1.297,2.309,4.279,3.433,8.963,3.433c1.142,0,2.728,0.075,4.76,0.149v-40.86
			C7515.909,4479.399,7512.592,4479.757,7510.898,4480.337z M7507.665,4551.596c-1.658,1.66-2.5,6.418-2.5,14.272v17.14
			c0,7.423,0.926,12.062,2.789,13.96c1.85,1.898,6.141,2.934,12.857,3.172v-51.381
			C7513.708,4548.976,7509.334,4549.936,7507.665,4551.596z"/>
		<path fill="#FFFFFF" d="M7733.06,4447.913v183.638h-41.746l-0.06-123.964l-16.619,123.964h-29.608l-17.521-121.149l-0.061,121.149
			h-41.745v-183.638h61.802c1.826,11.033,3.713,24.033,5.66,39.035l6.788,46.72l10.973-85.755H7733.06z"/>
		<path fill="#FFFFFF" d="M7752.226,4447.913h47.646c15.045,0,26.449,1.154,34.2,3.514c7.751,2.354,13.999,7.066,18.78,14.229
			c4.76,7.162,7.139,18.643,7.139,34.509c0,10.743-1.681,18.219-5.046,22.447c-3.365,4.229-9.999,7.497-19.913,9.753
			c11.044,2.502,18.532,6.635,22.459,12.427c3.942,5.792,5.9,14.659,5.9,26.609v17.035c0,12.403-1.418,21.606-4.253,27.569
			c-2.837,5.986-7.343,10.066-13.556,12.255c-6.2,2.189-18.9,3.291-38.116,3.291h-55.24V4447.913z M7799.98,4479.324v40.86
			c2.044-0.074,3.63-0.149,4.771-0.149c4.687,0,7.667-1.124,8.953-3.433c1.286-2.308,1.934-8.919,1.934-19.804
			c0-5.741-0.528-9.761-1.586-12.091c-1.068-2.279-2.438-3.768-4.145-4.371C7808.2,4479.757,7804.894,4479.399,7799.98,4479.324z
			 M7799.98,4548.759v51.381c6.741-0.238,11.032-1.273,12.882-3.172c1.851-1.898,2.775-6.537,2.775-13.96v-17.14
			c0-7.854-0.828-12.612-2.498-14.272C7811.479,4549.936,7807.094,4548.976,7799.98,4548.759z"/>
	</g>
</g>
<g>
	<g>
		<path fill="#F47D2B" stroke="#F47D2B" stroke-width="0.6254" stroke-miterlimit="10" d="M10526.195,2222.754
			c0,6.247-2.031,11.324-6.104,15.263c-4.074,3.969-9.242,5.934-15.477,5.934h-77.002c-6.238,0-11.334-1.965-15.287-5.934
			c-3.941-3.938-5.924-9.016-5.924-15.263v-256.602c0-6.247,1.982-11.34,5.924-15.285c3.953-3.961,9.049-5.912,15.287-5.912h77.002
			c6.234,0,11.402,1.951,15.477,5.912c4.072,3.945,6.104,9.038,6.104,15.285v69.554h-26.736v-67.269h-66.5v252.009h66.5v-73.567
			h26.736V2222.754z"/>
		<path fill="#F47D2B" stroke="#F47D2B" stroke-width="0.6254" stroke-miterlimit="10" d="M10693.189,2243.95h-26.363
			l-10.516-66.471h-59.422l-10.502,66.471h-25.607v-0.744l53.307-299.018h26.182L10693.189,2243.95z M10652.875,2153.975
			l-26.172-162.032l-26.363,162.032H10652.875z"/>
		<path fill="#F47D2B" stroke="#F47D2B" stroke-width="0.6254" stroke-miterlimit="10" d="M10856.352,2243.95h-27.891l-55.6-160.104
			l3.629-5.36h47.381v-110.049h-68.207v275.513h-26.557v-298.995h100.123c6.236,0,11.332,1.951,15.273,5.912
			c3.953,3.945,5.922,9.038,5.922,15.285v113.488c0,14.392-9.684,21.606-29.029,21.606c-1.912,0-4.713-0.127-8.412-0.291
			c-3.703-0.193-6.369-0.29-8.027-0.29C10822.152,2148.301,10839.289,2196.056,10856.352,2243.95z"/>
		<path fill="#F47D2B" stroke="#F47D2B" stroke-width="0.6254" stroke-miterlimit="10" d="M11010.32,2222.754
			c0,6.247-1.945,11.324-5.84,15.263c-3.883,3.969-8.941,5.934-15.178,5.934h-75.283c-6.236,0-11.369-1.965-15.381-5.934
			c-4.014-3.938-6.021-9.016-6.021-15.263v-75.875h26.557v73.567h64.59v-71.26l-82.541-99.736
			c-5.734-6.872-8.605-14.444-8.605-22.73v-60.567c0-6.247,2.008-11.34,6.021-15.285c4.012-3.961,9.145-5.912,15.381-5.912h75.283
			c6.236,0,11.295,1.951,15.178,5.912c3.895,3.945,5.84,9.038,5.84,15.285v69.554h-26.557v-67.269h-64.59v63.062l82.928,99.737
			c5.467,6.611,8.219,14.057,8.219,22.351V2222.754z"/>
	</g>
	<g>
		<path fill-rule="evenodd" clip-rule="evenodd" fill="#FFFFFF" d="M11024.955,1666.338c47.754-31.434,65.768-43.28,117.775-77.506
			c-289.912-20.355-576.398-19.32-868.102-0.357c52.717,34.271,58.953,38.306,107.598,69.934
			c-1.203,2.137,53.93,44.248,52.727,46.384c-59.65-24.755-133.24-61.937-192.889-86.715
			c-147.48-61.304-303.012-82.888-460.777-93.795c-17.771-1.207-35.916-3.797-52.85-9.091
			c-33.346-10.379-38.693-34.174-11.162-56.428c44.557-35.998,98.438-41.098,152.742-35.06
			c10.994,1.221,23.865,17.757,29.416,30.109c21.906,48.67,62.762,57.202,94.5,16.007
			c117.064-151.958,273.004-230.477,462.543-238.242c160.098-6.559,320.613-9.828,480.771-6.343
			c197.863,4.281,361.725,84.065,485.637,241.555c36.291,46.101,72.953,38.12,98.441-16.126
			c5.982-12.709,24.586-29.871,34.895-28.359c47.119,7.065,93.947,18.196,139.525,32.253c10.551,3.246,23.121,24.971,21.293,35.983
			c-1.67,10.356-20.258,23.475-32.959,25.47c-53.078,8.391-106.6,15.188-160.219,18.628
			c-165.313,10.625-316.324,70.053-466.449,133.145c-19.502,8.197-79.813,39.653-99.207,48.089
			C10956.869,1713.489,11026.289,1668.698,11024.955,1666.338z M11026.975,1278.758c26.582,44.552,36.926,64.506,0.998,101.323
			c-25.883,26.483-53.102,52.75-73.59,83.253c-26.568,39.535-14.084,65.585,33.178,73.44c28.875,4.832,58.883,2.762,88.371,3.849
			c103.99,3.797,197.949-8.22,301.797-33.146C11301.734,1370.588,11191.625,1277.865,11026.975,1278.758z"/>
		<path fill="#FFFFFF" d="M11519.92,1942.744c0,0,1.273-0.477,3.689-1.415c2.428-0.871,5.996-2.33,10.225-4.378
			c4.291-1.846,9.326-4.779,15.131-7.81c5.707-3.313,12.002-7.185,18.793-11.563c6.717-4.445,13.818-9.537,21.283-14.973
			c7.377-5.502,14.814-11.727,22.518-18.069c7.545-6.537,15.021-13.625,22.219-21.033c7.402-7.282,13.854-15.427,19.732-23.691
			c2.666-4.207,5.539-8.369,7.438-12.717l0.803-1.585l0.422-0.79l0.205-0.409l0.059-0.097c-0.672,1.921-0.178,0.454-0.313,0.864
			l0.072-0.238l1.141-3.916l2.273-7.766c1.861-5.36,1.934-9.857,2.955-14.615l1.215-7.014c0.18-2.501,0.348-5.003,0.541-7.453
			c0.912-9.806,1.068-19.492,1.201-28.717c-0.084-9.209-0.289-18.002-0.529-26.125c-0.59-8.101-0.625-15.62-1.154-22.254
			c-0.408-6.634-0.768-12.448-1.07-17.258c-0.658-9.567-0.863-15.114-0.863-15.114s1.85,5.212,4.746,14.414
			c2.764,9.254,6.453,22.567,9.613,38.909c1.49,8.175,3.029,17.094,3.979,26.654c0.877,9.567,1.922,19.685,1.439,30.376
			c-0.035,2.673-0.047,5.338-0.082,8.056c-0.301,2.836-0.613,5.673-0.9,8.532c-0.721,5.644-1.07,11.964-2.754,16.849l-2.115,7.81
			l-1.045,3.938l-0.084,0.238l-0.383,1.132l-0.049,0.119l-0.24,0.528l-0.494,1.035l-0.973,2.07
			c-2.428,5.695-5.637,10.646-8.783,15.687c-6.971,9.448-14.385,18.315-22.521,25.984c-7.881,7.981-16.582,14.638-24.848,21.152
			c-8.449,6.291-16.992,11.823-25.236,16.722c-8.256,4.974-16.354,9.084-23.936,12.643c-7.584,3.581-14.795,6.299-21.221,8.555
			c-6.504,2.092-12.15,3.774-17.053,4.66c-4.77,1.206-8.531,1.423-11.104,1.683
			C11521.277,1942.625,11519.92,1942.744,11519.92,1942.744z"/>
		<path fill="#FFFFFF" d="M9902.316,1942.744c0,0-1.369-0.119-3.939-0.388c-2.584-0.26-6.346-0.477-11.127-1.683
			c-4.891-0.886-10.553-2.568-17.041-4.66c-6.428-2.256-13.637-4.951-21.207-8.555c-7.594-3.559-15.707-7.669-23.938-12.62
			c-8.256-4.921-16.811-10.453-25.234-16.744c-8.291-6.515-16.98-13.171-24.865-21.152c-8.121-7.668-15.561-16.536-22.518-25.984
			c-3.148-5.018-6.369-9.992-8.783-15.687l-0.984-2.07l-0.469-1.035l-0.254-0.528l-0.059-0.119l-0.387-1.132l-0.059-0.238
			l-1.059-3.938l-2.102-7.81c-1.707-4.884-2.057-11.205-2.754-16.849c-0.311-2.859-0.611-5.696-0.912-8.532
			c-0.023-2.718-0.049-5.383-0.084-8.056c-0.469-10.691,0.576-20.81,1.43-30.376c0.975-9.56,2.5-18.479,3.988-26.654
			c3.15-16.342,6.85-29.655,9.615-38.909c2.908-9.202,4.734-14.414,4.734-14.414s-0.205,5.547-0.865,15.114
			c-0.289,4.81-0.648,10.625-1.057,17.258c-0.529,6.634-0.578,14.153-1.166,22.254c-0.229,8.123-0.434,16.916-0.541,26.125
			c0.156,9.225,0.313,18.911,1.236,28.717c0.168,2.449,0.352,4.951,0.529,7.453l1.225,7.014c1.012,4.757,1.084,9.254,2.945,14.615
			l2.27,7.766l1.145,3.916l0.07,0.238c0.313,0.916-0.395-1.109-0.301-0.864l0.049,0.097l0.205,0.409l0.408,0.79l0.818,1.608
			c1.885,4.326,4.77,8.488,7.438,12.694c5.875,8.287,12.33,16.409,19.73,23.691c7.199,7.408,14.686,14.496,22.205,21.033
			c7.717,6.343,15.154,12.59,22.545,18.069c7.426,5.436,14.541,10.527,21.27,15.002c6.777,4.349,13.086,8.22,18.793,11.533
			c5.793,3.03,10.828,5.964,15.129,7.81c4.242,2.048,7.799,3.507,10.227,4.378
			C9901.033,1942.268,9902.316,1942.744,9902.316,1942.744z"/>
		<g>
			<line fill="#FFFFFF" x1="10178.891" y1="1854.904" x2="10485.305" y2="1854.904"/>
			<rect x="10178.891" y="1848.196" fill="#FFFFFF" width="306.413" height="13.409"/>
		</g>
		<g>
			<line fill="#FFFFFF" x1="10943.291" y1="1854.904" x2="11249.701" y2="1854.904"/>
			<rect x="10943.291" y="1848.196" fill="#FFFFFF" width="306.41" height="13.409"/>
		</g>
		<path fill="#FFFFFF" d="M11606.969,1643.749c-14.564-8.845-44.197-9.731-57.789-0.551
			c-95.014,64.193-187.592,131.96-284.264,200.941c103.752-9.016,206.816-18.39,303.707-57.299
			c23.096-9.277,44.521-30.109,59.303-50.874C11646.754,1709.476,11636.277,1661.506,11606.969,1643.749z M11604.938,1718.083
			c-7.871,13.558-19.527,22.522-31.195,29.871c-11.836,7.214-24.189,12.545-36.025,16.417s-23.121,6.366-32.986,7.669
			c-9.779,1.511-18.133,1.779-24.008,1.779c-5.852-0.03-9.266-0.484-9.266-0.484s2.75-2.063,7.631-5.189
			c4.879-3.149,11.799-7.498,20.141-12.21c16.438-9.88,38.98-20.929,59.012-33.191c9.9-6.008,19.348-12.665,24.852-19.104
			c2.762-3.224,4.625-6.15,5.467-9.105c0.709-2.934,0.674-6.493-0.348-10.148c-1.238-3.604-2.945-7.207-4.844-10.379
			c-1.947-3.03-3.75-5.815-5.408-8.175c-3.629-4.542-5.514-7.423-5.514-7.423s3.352,0.767,8.879,2.621
			c2.68,1.154,6.236,2.568,9.914,4.899c1.826,1.251,3.748,2.598,5.793,3.991c1.885,1.735,3.881,3.604,5.779,5.889
			c3.689,4.638,7.27,11.131,7.941,19.253C11611.365,1703.155,11608.781,1711.404,11604.938,1718.083z"/>
		<path fill="#FFFFFF" d="M9797.617,1735.966c14.768,20.765,36.184,41.597,59.291,50.874
			c96.889,38.909,199.969,48.283,303.721,57.299c-96.688-68.98-189.275-136.748-284.277-200.941
			c-13.592-9.18-43.213-8.294-57.789,0.551C9789.242,1661.506,9778.789,1709.476,9797.617,1735.966z M9814.777,1695.062
			c0.686-8.123,4.242-14.615,7.943-19.253c1.91-2.286,3.893-4.154,5.781-5.889c2.043-1.393,3.975-2.74,5.803-3.991
			c3.652-2.331,7.232-3.745,9.902-4.899c5.527-1.854,8.891-2.621,8.891-2.621s-1.885,2.881-5.525,7.423
			c-1.66,2.36-3.451,5.145-5.408,8.175c-1.91,3.172-3.604,6.775-4.844,10.379c-1.02,3.655-1.045,7.214-0.336,10.148
			c0.828,2.956,2.703,5.881,5.455,9.105c5.506,6.44,14.938,13.096,24.863,19.104c20.02,12.262,42.563,23.311,59.012,33.191
			c8.342,4.713,15.262,9.061,20.129,12.21c4.879,3.127,7.643,5.189,7.643,5.189s-3.412,0.454-9.277,0.484
			c-5.863,0-14.227-0.268-23.998-1.779c-9.863-1.303-21.146-3.797-32.984-7.669c-11.848-3.872-24.201-9.202-36.037-16.417
			c-11.645-7.349-23.326-16.313-31.195-29.871C9816.76,1711.404,9814.166,1703.155,9814.777,1695.062z"/>
		<path fill="#FFFFFF" d="M10617.559,1910.662h-55.24c-19.203,0-31.916-1.109-38.119-3.291c-6.199-2.188-10.717-6.276-13.553-12.262
			c-2.836-5.956-4.254-15.167-4.254-27.563v-17.042c0-11.942,1.971-20.81,5.9-26.602s11.416-9.925,22.459-12.426
			c-9.902-2.263-16.547-5.532-19.91-9.761c-3.365-4.229-5.049-11.704-5.049-22.448c0-15.858,2.379-27.346,7.15-34.509
			c4.76-7.162,11.018-11.875,18.77-14.228c7.752-2.353,19.154-3.506,34.199-3.506h47.646V1910.662z M10559.877,1759.441
			c-1.703,0.603-3.074,2.092-4.145,4.378c-1.057,2.331-1.586,6.343-1.586,12.091c0,10.885,0.65,17.489,1.924,19.797
			c1.297,2.308,4.275,3.439,8.963,3.439c1.141,0,2.727,0.075,4.758,0.142v-40.852
			C10564.889,1758.503,10561.572,1758.868,10559.877,1759.441z M10556.646,1830.7c-1.658,1.661-2.5,6.418-2.5,14.28v17.131
			c0,7.431,0.926,12.069,2.787,13.968c1.852,1.898,6.143,2.933,12.857,3.171v-51.387
			C10562.689,1828.079,10558.316,1829.047,10556.646,1830.7z"/>
		<path fill="#FFFFFF" d="M10782.041,1727.024v183.638h-41.746l-0.059-123.964l-16.621,123.964h-29.607l-17.52-121.149
			l-0.063,121.149h-41.744v-183.638h61.803c1.826,11.026,3.711,24.033,5.658,39.028l6.789,46.719l10.971-85.747H10782.041z"/>
		<path fill="#FFFFFF" d="M10801.207,1727.024h47.646c15.045,0,26.447,1.154,34.197,3.506c7.752,2.353,14.002,7.066,18.783,14.228
			c4.76,7.163,7.139,18.65,7.139,34.509c0,10.744-1.684,18.219-5.049,22.448c-3.363,4.229-9.996,7.498-19.91,9.761
			c11.043,2.501,18.529,6.634,22.459,12.426c3.941,5.792,5.9,14.66,5.9,26.602v17.042c0,12.396-1.418,21.606-4.252,27.563
			c-2.838,5.985-7.344,10.073-13.557,12.262c-6.201,2.182-18.902,3.291-38.117,3.291h-55.24V1727.024z M10848.961,1758.436v40.852
			c2.043-0.067,3.629-0.142,4.771-0.142c4.688,0,7.666-1.131,8.953-3.439c1.283-2.308,1.934-8.912,1.934-19.797
			c0-5.748-0.529-9.761-1.586-12.091c-1.07-2.286-2.439-3.775-4.145-4.378
			C10857.182,1758.868,10853.875,1758.503,10848.961,1758.436z M10848.961,1827.863v51.387c6.742-0.238,11.033-1.273,12.883-3.171
			c1.85-1.899,2.775-6.537,2.775-13.968v-17.131c0-7.862-0.828-12.62-2.5-14.28
			C10860.461,1829.047,10856.076,1828.079,10848.961,1827.863z"/>
	</g>
</g>
<g>
	<text transform="matrix(1 0 0 1 9608.9199 1133.8037)" fill="#FFFFFF" font-family="'CooHew-Bold'" font-size="413.4166">POJAZDÓW</text>
	<text transform="matrix(1 0 0 1 9631.7891 721.4834)" fill="#FFFFFF" font-family="'CooHew-Bold'" font-size="221.51">STUDIO PIELĘGNACJI</text>
</g>
<g>
	<g>
		<path fill="#F47D2B" stroke="#F47D2B" stroke-width="0.6254" stroke-miterlimit="10" d="M10528.852,4943.649
			c0,6.247-2.031,11.317-6.104,15.256c-4.074,3.969-9.242,5.941-15.479,5.941h-77.004c-6.234,0-11.332-1.973-15.285-5.941
			c-3.939-3.938-5.922-9.009-5.922-15.256v-256.602c0-6.254,1.982-11.347,5.922-15.285c3.953-3.969,9.051-5.911,15.285-5.911h77.004
			c6.236,0,11.404,1.942,15.479,5.911c4.072,3.938,6.104,9.031,6.104,15.285v69.547h-26.738v-67.269h-66.5v252.016h66.5v-73.566
			h26.738V4943.649z"/>
		<path fill="#F47D2B" stroke="#F47D2B" stroke-width="0.6254" stroke-miterlimit="10" d="M10695.846,4964.847h-26.363
			l-10.516-66.479h-59.422l-10.502,66.479h-25.609v-0.744l53.309-299.025h26.182L10695.846,4964.847z M10655.531,4874.863
			l-26.174-162.032l-26.363,162.032H10655.531z"/>
		<path fill="#F47D2B" stroke="#F47D2B" stroke-width="0.6254" stroke-miterlimit="10" d="M10859.008,4964.847h-27.891
			l-55.602-160.111l3.629-5.36h47.383v-110.049h-68.207v275.521h-26.557v-298.995h100.123c6.236,0,11.33,1.942,15.271,5.911
			c3.953,3.938,5.924,9.031,5.924,15.285v113.481c0,14.399-9.684,21.606-29.031,21.606c-1.91,0-4.711-0.119-8.412-0.291
			c-3.701-0.186-6.367-0.283-8.025-0.283C10824.807,4869.189,10841.943,4916.944,10859.008,4964.847z"/>
		<path fill="#F47D2B" stroke="#F47D2B" stroke-width="0.6254" stroke-miterlimit="10" d="M11012.977,4943.649
			c0,6.247-1.947,11.317-5.842,15.256c-3.881,3.969-8.939,5.941-15.178,5.941h-75.283c-6.234,0-11.365-1.973-15.381-5.941
			c-4.014-3.938-6.02-9.009-6.02-15.256v-75.874h26.557v73.566h64.588v-71.259l-82.541-99.737
			c-5.732-6.872-8.604-14.443-8.604-22.737v-60.561c0-6.254,2.006-11.347,6.02-15.285c4.016-3.969,9.146-5.911,15.381-5.911h75.283
			c6.238,0,11.297,1.942,15.178,5.911c3.895,3.938,5.842,9.031,5.842,15.285v69.547h-26.559v-67.269h-64.588v63.069l82.926,99.737
			c5.469,6.604,8.221,14.057,8.221,22.351V4943.649z"/>
	</g>
	<g>
		<path fill-rule="evenodd" clip-rule="evenodd" fill="#FFFFFF" d="M11027.611,4387.233c47.754-31.434,65.768-43.287,117.775-77.505
			c-289.912-20.363-576.4-19.328-868.102-0.365c52.715,34.271,58.953,38.306,107.596,69.934
			c-1.201,2.145,53.932,44.247,52.729,46.384c-59.65-24.748-133.238-61.93-192.891-86.707
			c-147.48-61.313-303.01-82.889-460.775-93.804c-17.771-1.198-35.918-3.797-52.85-9.083
			c-33.348-10.379-38.693-34.174-11.164-56.428c44.559-36.006,98.441-41.098,152.744-35.067
			c10.994,1.229,23.865,17.765,29.416,30.116c21.906,48.662,62.764,57.194,94.5,16.008
			c117.066-151.967,273.004-230.484,462.543-238.242c160.096-6.566,320.613-9.836,480.771-6.344
			c197.863,4.273,361.723,84.064,485.637,241.555c36.291,46.094,72.953,38.113,98.441-16.126
			c5.982-12.717,24.584-29.87,34.895-28.359c47.117,7.065,93.947,18.188,139.525,32.253c10.549,3.246,23.119,24.972,21.293,35.977
			c-1.67,10.355-20.26,23.482-32.961,25.477c-53.078,8.384-106.6,15.189-160.219,18.621
			c-165.311,10.625-316.324,70.061-466.447,133.145c-19.502,8.197-79.814,39.66-99.209,48.096
			C10959.525,4434.385,11028.945,4389.587,11027.611,4387.233z M11029.631,3999.647c26.58,44.56,36.928,64.506,0.998,101.322
			c-25.885,26.49-53.102,52.758-73.59,83.254c-26.568,39.533-14.084,65.585,33.176,73.447c28.877,4.832,58.883,2.762,88.373,3.842
			c103.99,3.797,197.947-8.22,301.793-33.139C11304.391,4091.478,11194.281,3998.761,11029.631,3999.647z"/>
		<path fill="#FFFFFF" d="M11522.576,4663.64c0,0,1.273-0.483,3.689-1.422c2.428-0.863,5.994-2.33,10.227-4.37
			c4.287-1.854,9.324-4.787,15.129-7.81c5.705-3.321,12.002-7.192,18.793-11.563c6.717-4.445,13.818-9.545,21.281-14.973
			c7.377-5.502,14.814-11.727,22.52-18.078c7.545-6.536,15.02-13.624,22.219-21.025c7.4-7.281,13.854-15.426,19.73-23.698
			c2.668-4.206,5.537-8.36,7.438-12.709l0.805-1.586l0.422-0.796l0.203-0.41l0.061-0.097c-0.672,1.921-0.18,0.462-0.313,0.864
			l0.072-0.238l1.141-3.917l2.273-7.765c1.861-5.354,1.934-9.851,2.955-14.608l1.213-7.021c0.18-2.494,0.35-4.996,0.541-7.445
			c0.914-9.806,1.07-19.492,1.203-28.725c-0.086-9.201-0.289-18.002-0.529-26.125c-0.588-8.101-0.625-15.62-1.154-22.254
			c-0.41-6.634-0.768-12.449-1.07-17.251c-0.66-9.567-0.865-15.121-0.865-15.121s1.852,5.22,4.748,14.421
			c2.764,9.255,6.453,22.567,9.613,38.91c1.49,8.174,3.027,17.086,3.977,26.653c0.879,9.567,1.922,19.686,1.443,30.377
			c-0.037,2.665-0.049,5.339-0.084,8.049c-0.303,2.837-0.615,5.673-0.902,8.532c-0.721,5.65-1.07,11.972-2.752,16.849l-2.115,7.81
			l-1.045,3.946l-0.084,0.238l-0.383,1.132l-0.049,0.119l-0.242,0.528l-0.492,1.035l-0.973,2.063
			c-2.428,5.695-5.637,10.646-8.785,15.694c-6.969,9.448-14.383,18.315-22.52,25.977c-7.883,7.981-16.582,14.638-24.85,21.152
			c-8.447,6.299-16.99,11.823-25.234,16.729c-8.254,4.974-16.355,9.083-23.936,12.642c-7.584,3.582-14.795,6.292-21.223,8.555
			c-6.5,2.093-12.15,3.775-17.053,4.661c-4.77,1.198-8.529,1.415-11.104,1.683
			C11523.934,4663.514,11522.576,4663.64,11522.576,4663.64z"/>
		<path fill="#FFFFFF" d="M9904.975,4663.64c0,0-1.369-0.126-3.941-0.387c-2.584-0.268-6.346-0.484-11.127-1.683
			c-4.893-0.886-10.551-2.568-17.041-4.661c-6.428-2.263-13.637-4.951-21.209-8.555c-7.594-3.559-15.707-7.668-23.938-12.619
			c-8.254-4.929-16.811-10.453-25.234-16.752c-8.291-6.515-16.98-13.171-24.861-21.152c-8.125-7.661-15.563-16.528-22.52-25.977
			c-3.146-5.025-6.367-9.999-8.783-15.694l-0.986-2.063l-0.469-1.035l-0.252-0.528l-0.063-0.119l-0.383-1.132l-0.059-0.238
			l-1.059-3.946l-2.104-7.81c-1.705-4.877-2.055-11.198-2.75-16.849c-0.313-2.859-0.615-5.695-0.916-8.532
			c-0.021-2.71-0.047-5.384-0.082-8.049c-0.469-10.691,0.578-20.81,1.43-30.377c0.973-9.567,2.498-18.479,3.988-26.653
			c3.148-16.343,6.85-29.655,9.615-38.91c2.906-9.201,4.734-14.421,4.734-14.421s-0.205,5.554-0.865,15.121
			c-0.289,4.802-0.65,10.617-1.059,17.251c-0.529,6.634-0.578,14.153-1.166,22.254c-0.227,8.123-0.432,16.924-0.539,26.125
			c0.156,9.232,0.313,18.919,1.236,28.725c0.168,2.449,0.35,4.951,0.529,7.445l1.227,7.021c1.01,4.758,1.08,9.255,2.943,14.608
			l2.271,7.765l1.141,3.917l0.074,0.238c0.311,0.915-0.398-1.103-0.303-0.864l0.049,0.097l0.205,0.41l0.408,0.796l0.816,1.608
			c1.887,4.326,4.77,8.48,7.438,12.687c5.877,8.294,12.33,16.417,19.732,23.698c7.197,7.401,14.684,14.489,22.207,21.025
			c7.713,6.352,15.15,12.598,22.543,18.078c7.424,5.428,14.539,10.527,21.27,14.994c6.777,4.349,13.084,8.22,18.793,11.541
			c5.791,3.022,10.828,5.955,15.129,7.81c4.242,2.04,7.799,3.507,10.227,4.37C9903.688,4663.156,9904.975,4663.64,9904.975,4663.64z
			"/>
		<g>
			<line fill="#FFFFFF" x1="10181.549" y1="4575.793" x2="10487.961" y2="4575.793"/>
			<rect x="10181.549" y="4569.093" fill="#FFFFFF" width="306.411" height="13.408"/>
		</g>
		<g>
			<line fill="#FFFFFF" x1="10945.947" y1="4575.793" x2="11252.359" y2="4575.793"/>
			<rect x="10945.947" y="4569.093" fill="#FFFFFF" width="306.411" height="13.408"/>
		</g>
		<path fill="#FFFFFF" d="M11609.623,4364.638c-14.563-8.838-44.195-9.731-57.787-0.551
			c-95.016,64.192-187.592,131.967-284.266,200.94c103.752-9.009,206.818-18.383,303.709-57.292
			c23.096-9.276,44.521-30.115,59.303-50.881C11649.41,4430.372,11638.93,4382.401,11609.623,4364.638z M11607.594,4438.979
			c-7.871,13.55-19.529,22.515-31.195,29.87c-11.836,7.207-24.189,12.546-36.025,16.417c-11.838,3.864-23.121,6.366-32.988,7.661
			c-9.779,1.52-18.133,1.779-24.008,1.779c-5.852-0.021-9.264-0.477-9.264-0.477s2.75-2.069,7.629-5.196
			c4.881-3.142,11.801-7.497,20.139-12.203c16.439-9.88,38.984-20.937,59.016-33.19c9.9-6.009,19.348-12.665,24.85-19.105
			c2.764-3.224,4.627-6.156,5.467-9.113c0.711-2.933,0.676-6.484-0.348-10.14c-1.236-3.604-2.943-7.207-4.842-10.386
			c-1.947-3.023-3.75-5.815-5.408-8.168c-3.629-4.542-5.518-7.431-5.518-7.431s3.355,0.774,8.883,2.621
			c2.68,1.153,6.236,2.575,9.914,4.906c1.826,1.251,3.748,2.591,5.793,3.991c1.885,1.727,3.879,3.604,5.779,5.889
			c3.689,4.639,7.268,11.123,7.941,19.246C11614.021,4424.051,11611.438,4432.292,11607.594,4438.979z"/>
		<path fill="#FFFFFF" d="M9800.273,4456.854c14.768,20.766,36.184,41.604,59.289,50.881
			c96.889,38.909,199.969,48.283,303.719,57.292c-96.684-68.974-189.271-136.748-284.275-200.94
			c-13.592-9.181-43.213-8.287-57.787,0.551C9791.898,4382.401,9781.443,4430.372,9800.273,4456.854z M9817.434,4415.95
			c0.686-8.123,4.242-14.607,7.943-19.246c1.91-2.285,3.893-4.162,5.779-5.889c2.043-1.4,3.979-2.74,5.805-3.991
			c3.654-2.331,7.234-3.753,9.9-4.906c5.527-1.847,8.893-2.621,8.893-2.621s-1.887,2.889-5.527,7.431
			c-1.658,2.353-3.447,5.145-5.408,8.168c-1.91,3.179-3.605,6.782-4.842,10.386c-1.021,3.655-1.045,7.207-0.338,10.14
			c0.83,2.957,2.705,5.89,5.457,9.113c5.504,6.44,14.936,13.097,24.863,19.105c20.018,12.254,42.563,23.311,59.012,33.19
			c8.34,4.706,15.262,9.062,20.129,12.203c4.879,3.127,7.643,5.196,7.643,5.196s-3.414,0.455-9.277,0.477
			c-5.865,0-14.227-0.26-23.998-1.779c-9.863-1.295-21.15-3.797-32.984-7.661c-11.848-3.871-24.201-9.21-36.039-16.417
			c-11.645-7.355-23.324-16.32-31.195-29.87C9819.416,4432.292,9816.82,4424.051,9817.434,4415.95z"/>
		<path fill="#FFFFFF" d="M10620.215,4631.551h-55.24c-19.203,0-31.918-1.102-38.119-3.291c-6.199-2.188-10.717-6.269-13.553-12.255
			c-2.836-5.963-4.254-15.166-4.254-27.569V4571.4c0-11.95,1.969-20.817,5.9-26.609c3.928-5.792,11.414-9.925,22.459-12.427
			c-9.902-2.256-16.547-5.523-19.912-9.753c-3.365-4.229-5.047-11.704-5.047-22.447c0-15.866,2.379-27.347,7.148-34.509
			c4.758-7.162,11.02-11.875,18.771-14.229c7.75-2.359,19.154-3.514,34.199-3.514h47.646V4631.551z M10562.533,4480.337
			c-1.705,0.604-3.076,2.092-4.145,4.371c-1.057,2.33-1.586,6.35-1.586,12.091c0,10.885,0.648,17.496,1.922,19.804
			c1.299,2.309,4.279,3.433,8.965,3.433c1.141,0,2.727,0.075,4.758,0.149v-40.86
			C10567.545,4479.399,10564.229,4479.757,10562.533,4480.337z M10559.301,4551.596c-1.656,1.66-2.498,6.418-2.498,14.272v17.14
			c0,7.423,0.926,12.062,2.787,13.96c1.852,1.898,6.141,2.934,12.857,3.172v-51.381
			C10565.346,4548.976,10560.973,4549.936,10559.301,4551.596z"/>
		<path fill="#FFFFFF" d="M10784.695,4447.913v183.638h-41.746l-0.059-123.964l-16.617,123.964h-29.611l-17.518-121.149
			l-0.063,121.149h-41.746v-183.638h61.803c1.826,11.033,3.713,24.033,5.66,39.035l6.787,46.72l10.973-85.755H10784.695z"/>
		<path fill="#FFFFFF" d="M10803.863,4447.913h47.646c15.043,0,26.447,1.154,34.197,3.514c7.752,2.354,14,7.066,18.783,14.229
			c4.758,7.162,7.137,18.643,7.137,34.509c0,10.743-1.682,18.219-5.047,22.447c-3.363,4.229-9.996,7.497-19.91,9.753
			c11.043,2.502,18.529,6.635,22.459,12.427c3.941,5.792,5.9,14.659,5.9,26.609v17.035c0,12.403-1.418,21.606-4.256,27.569
			c-2.834,5.986-7.34,10.066-13.553,12.255c-6.201,2.189-18.902,3.291-38.117,3.291h-55.24V4447.913z M10851.617,4479.324v40.86
			c2.043-0.074,3.629-0.149,4.771-0.149c4.686,0,7.666-1.124,8.951-3.433c1.285-2.308,1.936-8.919,1.936-19.804
			c0-5.741-0.529-9.761-1.586-12.091c-1.07-2.279-2.439-3.768-4.146-4.371
			C10859.838,4479.757,10856.531,4479.399,10851.617,4479.324z M10851.617,4548.759v51.381c6.742-0.238,11.031-1.273,12.881-3.172
			s2.777-6.537,2.777-13.96v-17.14c0-7.854-0.83-12.612-2.5-14.272C10863.117,4549.936,10858.73,4548.976,10851.617,4548.759z"/>
	</g>
</g>
<g>
	<g>
		<path fill="#F47D2B" stroke="#F47D2B" stroke-width="0.6254" stroke-miterlimit="10" d="M4398.313,2222.754
			c0,6.247-2.032,11.324-6.105,15.263c-4.073,3.969-9.24,5.934-15.477,5.934h-77.003c-6.237,0-11.332-1.965-15.285-5.934
			c-3.94-3.938-5.924-9.016-5.924-15.263v-256.602c0-6.247,1.984-11.34,5.924-15.285c3.954-3.961,9.048-5.912,15.285-5.912h77.003
			c6.237,0,11.404,1.951,15.477,5.912c4.073,3.945,6.105,9.038,6.105,15.285v69.554h-26.738v-67.269h-66.5v252.009h66.5v-73.567
			h26.738V2222.754z"/>
		<path fill="#F47D2B" stroke="#F47D2B" stroke-width="0.6254" stroke-miterlimit="10" d="M4565.307,2243.95h-26.364l-10.516-66.471
			h-59.421l-10.502,66.471h-25.608v-0.744l53.305-299.018h26.185L4565.307,2243.95z M4524.991,2153.975l-26.172-162.032
			l-26.364,162.032H4524.991z"/>
		<path fill="#F47D2B" stroke="#F47D2B" stroke-width="0.6254" stroke-miterlimit="10" d="M4728.467,2243.95h-27.89l-55.6-160.104
			l3.627-5.36h47.382v-110.049h-68.206v275.513h-26.558v-298.995h100.125c6.235,0,11.332,1.951,15.272,5.912
			c3.954,3.945,5.925,9.038,5.925,15.285v113.488c0,14.392-9.687,21.606-29.033,21.606c-1.91,0-4.709-0.127-8.411-0.291
			c-3.702-0.193-6.368-0.29-8.028-0.29C4694.269,2148.301,4711.404,2196.056,4728.467,2243.95z"/>
		<path fill="#F47D2B" stroke="#F47D2B" stroke-width="0.6254" stroke-miterlimit="10" d="M4882.435,2222.754
			c0,6.247-1.945,11.324-5.839,15.263c-3.881,3.969-8.94,5.934-15.177,5.934h-75.285c-6.236,0-11.365-1.965-15.38-5.934
			c-4.013-3.938-6.021-9.016-6.021-15.263v-75.875h26.558v73.567h64.59v-71.26l-82.542-99.736
			c-5.731-6.872-8.605-14.444-8.605-22.73v-60.567c0-6.247,2.008-11.34,6.021-15.285c4.015-3.961,9.145-5.912,15.38-5.912h75.285
			c6.237,0,11.296,1.951,15.177,5.912c3.894,3.945,5.839,9.038,5.839,15.285v69.554h-26.555v-67.269h-64.59v63.062l82.927,99.737
			c5.467,6.611,8.218,14.057,8.218,22.351V2222.754z"/>
	</g>
	<g>
		<path fill-rule="evenodd" clip-rule="evenodd" fill="#58595B" d="M4897.073,1666.338c47.754-31.434,65.768-43.28,117.773-77.506
			c-289.912-20.355-576.399-19.32-868.102-0.357c52.716,34.271,58.956,38.306,107.598,69.934
			c-1.201,2.137,53.932,44.248,52.729,46.384c-59.652-24.755-133.241-61.937-192.891-86.715
			c-147.48-61.304-303.01-82.888-460.776-93.795c-17.772-1.207-35.918-3.797-52.851-9.091
			c-33.344-10.379-38.692-34.174-11.162-56.428c44.558-35.998,98.44-41.098,152.742-35.06c10.997,1.221,23.866,17.757,29.416,30.109
			c21.908,48.67,62.764,57.202,94.5,16.007c117.066-151.958,273.004-230.477,462.542-238.242
			c160.098-6.559,320.616-9.828,480.772-6.343c197.866,4.281,361.724,84.065,485.638,241.555
			c36.292,46.101,72.953,38.12,98.441-16.126c5.982-12.709,24.584-29.871,34.896-28.359c47.117,7.065,93.944,18.196,139.524,32.253
			c10.55,3.246,23.12,24.971,21.293,35.983c-1.671,10.356-20.26,23.475-32.962,25.47c-53.078,8.391-106.6,15.188-160.217,18.628
			c-165.312,10.625-316.324,70.053-466.447,133.145c-19.503,8.197-79.815,39.653-99.21,48.089
			C4828.985,1713.489,4898.405,1668.698,4897.073,1666.338z M4899.09,1278.758c26.582,44.552,36.929,64.506,0.998,101.323
			c-25.883,26.483-53.1,52.75-73.589,83.253c-26.568,39.535-14.083,65.585,33.178,73.44c28.875,4.832,58.881,2.762,88.37,3.849
			c103.992,3.797,197.95-8.22,301.796-33.146C5173.851,1370.588,5063.743,1277.865,4899.09,1278.758z"/>
		<path fill="#58595B" d="M5392.036,1942.744c0,0,1.273-0.477,3.689-1.415c2.427-0.871,5.997-2.33,10.226-4.378
			c4.291-1.846,9.325-4.779,15.129-7.81c5.708-3.313,12.005-7.185,18.795-11.563c6.716-4.445,13.819-9.537,21.281-14.973
			c7.378-5.502,14.816-11.727,22.52-18.069c7.546-6.537,15.019-13.625,22.217-21.033c7.402-7.282,13.855-15.427,19.732-23.691
			c2.667-4.207,5.539-8.369,7.438-12.717l0.806-1.585l0.421-0.79l0.205-0.409l0.06-0.097c-0.674,1.921-0.181,0.454-0.313,0.864
			l0.07-0.238l1.143-3.916l2.271-7.766c1.863-5.36,1.936-9.857,2.956-14.615l1.213-7.014c0.181-2.501,0.35-5.003,0.542-7.453
			c0.914-9.806,1.07-19.492,1.2-28.717c-0.083-9.209-0.287-18.002-0.528-26.125c-0.588-8.101-0.625-15.62-1.154-22.254
			c-0.407-6.634-0.767-12.448-1.068-17.258c-0.661-9.567-0.865-15.114-0.865-15.114s1.852,5.212,4.748,14.414
			c2.762,9.254,6.451,22.567,9.612,38.909c1.489,8.175,3.028,17.094,3.978,26.654c0.877,9.567,1.923,19.685,1.443,30.376
			c-0.037,2.673-0.048,5.338-0.086,8.056c-0.299,2.836-0.612,5.673-0.901,8.532c-0.72,5.644-1.068,11.964-2.751,16.849l-2.114,7.81
			l-1.046,3.938l-0.086,0.238l-0.383,1.132l-0.048,0.119l-0.24,0.528l-0.493,1.035l-0.972,2.07
			c-2.427,5.695-5.636,10.646-8.786,15.687c-6.969,9.448-14.384,18.315-22.518,25.984c-7.883,7.981-16.584,14.638-24.851,21.152
			c-8.448,6.291-16.992,11.823-25.234,16.722c-8.257,4.974-16.355,9.084-23.937,12.643c-7.583,3.581-14.794,6.299-21.223,8.555
			c-6.5,2.092-12.149,3.774-17.052,4.66c-4.771,1.206-8.53,1.423-11.103,1.683
			C5393.394,1942.625,5392.036,1942.744,5392.036,1942.744z"/>
		<path fill="#58595B" d="M3774.435,1942.744c0,0-1.37-0.119-3.942-0.388c-2.583-0.26-6.343-0.477-11.127-1.683
			c-4.892-0.886-10.55-2.568-17.039-4.66c-6.429-2.256-13.64-4.951-21.209-8.555c-7.594-3.559-15.706-7.669-23.937-12.62
			c-8.255-4.921-16.811-10.453-25.234-16.744c-8.294-6.515-16.98-13.171-24.863-21.152c-8.123-7.668-15.561-16.536-22.519-25.984
			c-3.149-5.018-6.369-9.992-8.785-15.687l-0.985-2.07l-0.469-1.035l-0.251-0.528l-0.062-0.119l-0.385-1.132l-0.06-0.238
			l-1.057-3.938l-2.104-7.81c-1.705-4.884-2.055-11.205-2.75-16.849c-0.313-2.859-0.612-5.696-0.912-8.532
			c-0.026-2.718-0.049-5.383-0.086-8.056c-0.469-10.691,0.577-20.81,1.43-30.376c0.975-9.56,2.501-18.479,3.991-26.654
			c3.149-16.342,6.85-29.655,9.612-38.909c2.909-9.202,4.735-14.414,4.735-14.414s-0.205,5.547-0.863,15.114
			c-0.291,4.81-0.65,10.625-1.058,17.258c-0.53,6.634-0.577,14.153-1.167,22.254c-0.229,8.123-0.434,16.916-0.542,26.125
			c0.156,9.225,0.313,18.911,1.24,28.717c0.167,2.449,0.346,4.951,0.528,7.453l1.225,7.014c1.009,4.757,1.081,9.254,2.944,14.615
			l2.271,7.766l1.141,3.916l0.072,0.238c0.313,0.916-0.396-1.109-0.301-0.864l0.048,0.097l0.205,0.409l0.41,0.79l0.814,1.608
			c1.888,4.326,4.773,8.488,7.44,12.694c5.876,8.287,12.328,16.409,19.732,23.691c7.196,7.408,14.682,14.496,22.206,21.033
			c7.715,6.343,15.153,12.59,22.544,18.069c7.425,5.436,14.539,10.527,21.267,15.002c6.779,4.349,13.087,8.22,18.796,11.533
			c5.792,3.03,10.825,5.964,15.129,7.81c4.24,2.048,7.799,3.507,10.226,4.378C3773.15,1942.268,3774.435,1942.744,3774.435,1942.744
			z"/>
		<g>
			<line fill="#58595B" x1="4051.008" y1="1854.904" x2="4357.419" y2="1854.904"/>
			<rect x="4051.008" y="1848.196" fill="#58595B" width="306.411" height="13.409"/>
		</g>
		<g>
			<line fill="#58595B" x1="4815.409" y1="1854.904" x2="5121.82" y2="1854.904"/>
			<rect x="4815.409" y="1848.196" fill="#58595B" width="306.411" height="13.409"/>
		</g>
		<path fill="#58595B" d="M5479.084,1643.749c-14.565-8.845-44.197-9.731-57.789-0.551
			c-95.013,64.193-187.591,131.96-284.265,200.941c103.753-9.016,206.819-18.39,303.708-57.299
			c23.095-9.277,44.523-30.109,59.302-50.874C5518.87,1709.476,5508.392,1661.506,5479.084,1643.749z M5477.053,1718.083
			c-7.87,13.558-19.527,22.522-31.196,29.871c-11.834,7.214-24.19,12.545-36.024,16.417c-11.838,3.872-23.122,6.366-32.986,7.669
			c-9.781,1.511-18.133,1.779-24.009,1.779c-5.852-0.03-9.264-0.484-9.264-0.484s2.751-2.063,7.629-5.189
			c4.878-3.149,11.799-7.498,20.14-12.21c16.439-9.88,38.981-20.929,59.013-33.191c9.902-6.008,19.347-12.665,24.851-19.104
			c2.764-3.224,4.625-6.15,5.467-9.105c0.711-2.934,0.673-6.493-0.347-10.148c-1.239-3.604-2.944-7.207-4.843-10.379
			c-1.947-3.03-3.749-5.815-5.409-8.175c-3.629-4.542-5.515-7.423-5.515-7.423s3.353,0.767,8.88,2.621
			c2.68,1.154,6.235,2.568,9.914,4.899c1.828,1.251,3.749,2.598,5.792,3.991c1.887,1.735,3.882,3.604,5.781,5.889
			c3.689,4.638,7.269,11.131,7.94,19.253C5483.482,1703.155,5480.899,1711.404,5477.053,1718.083z"/>
		<path fill="#58595B" d="M3669.735,1735.966c14.768,20.765,36.18,41.597,59.289,50.874
			c96.891,38.909,199.967,48.283,303.719,57.299c-96.686-68.98-189.272-136.748-284.276-200.941
			c-13.591-9.18-43.212-8.294-57.789,0.551C3661.359,1661.506,3650.904,1709.476,3669.735,1735.966z M3686.893,1695.062
			c0.685-8.123,4.244-14.615,7.944-19.253c1.91-2.286,3.894-4.154,5.779-5.889c2.042-1.393,3.978-2.74,5.806-3.991
			c3.652-2.331,7.233-3.745,9.9-4.899c5.528-1.854,8.892-2.621,8.892-2.621s-1.886,2.881-5.526,7.423
			c-1.658,2.36-3.449,5.145-5.407,8.175c-1.912,3.172-3.605,6.775-4.843,10.379c-1.021,3.655-1.046,7.214-0.337,10.148
			c0.829,2.956,2.705,5.881,5.456,9.105c5.504,6.44,14.938,13.096,24.864,19.104c20.019,12.262,42.561,23.311,59.011,33.191
			c8.341,4.713,15.263,9.061,20.128,12.21c4.88,3.127,7.643,5.189,7.643,5.189s-3.412,0.454-9.277,0.484
			c-5.863,0-14.228-0.268-23.996-1.779c-9.865-1.303-21.148-3.797-32.986-7.669c-11.849-3.872-24.201-9.202-36.037-16.417
			c-11.645-7.349-23.324-16.313-31.196-29.871C3688.877,1711.404,3686.282,1703.155,3686.893,1695.062z"/>
		<path fill="#58595B" d="M4489.674,1910.662h-55.24c-19.202,0-31.916-1.109-38.116-3.291c-6.202-2.188-10.718-6.276-13.554-12.262
			c-2.837-5.956-4.255-15.167-4.255-27.563v-17.042c0-11.942,1.971-20.81,5.9-26.602s11.417-9.925,22.458-12.426
			c-9.902-2.263-16.547-5.532-19.911-9.761c-3.365-4.229-5.046-11.704-5.046-22.448c0-15.858,2.379-27.346,7.147-34.509
			c4.759-7.162,11.019-11.875,18.771-14.228c7.75-2.353,19.155-3.506,34.198-3.506h47.646V1910.662z M4431.995,1759.441
			c-1.707,0.603-3.077,2.092-4.147,4.378c-1.057,2.331-1.586,6.343-1.586,12.091c0,10.885,0.649,17.489,1.923,19.797
			c1.297,2.308,4.279,3.439,8.966,3.439c1.139,0,2.727,0.075,4.758,0.142v-40.852
			C4437.006,1758.503,4433.689,1758.868,4431.995,1759.441z M4428.762,1830.7c-1.659,1.661-2.5,6.418-2.5,14.28v17.131
			c0,7.431,0.927,12.069,2.788,13.968c1.851,1.898,6.141,2.933,12.858,3.171v-51.387
			C4434.806,1828.079,4430.432,1829.047,4428.762,1830.7z"/>
		<path fill="#58595B" d="M4654.157,1727.024v183.638h-41.746l-0.06-123.964l-16.62,123.964h-29.608l-17.521-121.149l-0.06,121.149
			h-41.746v-183.638h61.802c1.826,11.026,3.713,24.033,5.66,39.028l6.788,46.719l10.973-85.747H4654.157z"/>
		<path fill="#58595B" d="M4673.323,1727.024h47.646c15.045,0,26.449,1.154,34.2,3.506c7.75,2.353,13.999,7.066,18.781,14.228
			c4.76,7.163,7.138,18.65,7.138,34.509c0,10.744-1.681,18.219-5.046,22.448s-9.999,7.498-19.913,9.761
			c11.045,2.501,18.531,6.634,22.459,12.426c3.942,5.792,5.9,14.66,5.9,26.602v17.042c0,12.396-1.418,21.606-4.253,27.563
			c-2.834,5.985-7.343,10.073-13.556,12.262c-6.198,2.182-18.9,3.291-38.116,3.291h-55.24V1727.024z M4721.077,1758.436v40.852
			c2.043-0.067,3.629-0.142,4.772-0.142c4.685,0,7.665-1.131,8.951-3.439s1.934-8.912,1.934-19.797
			c0-5.748-0.528-9.761-1.585-12.091c-1.069-2.286-2.438-3.775-4.146-4.378C4729.297,1758.868,4725.991,1758.503,4721.077,1758.436z
			 M4721.077,1827.863v51.387c6.742-0.238,11.032-1.273,12.882-3.171c1.85-1.899,2.775-6.537,2.775-13.968v-17.131
			c0-7.862-0.828-12.62-2.498-14.28C4732.576,1829.047,4728.191,1828.079,4721.077,1827.863z"/>
	</g>
</g>
<g>
	<text transform="matrix(1 0 0 1 3481.0298 1133.8037)" fill="#58595B" font-family="'CooHew-Bold'" font-size="413.4166">POJAZDÓW</text>
	<text transform="matrix(1 0 0 1 3503.8994 721.4834)" fill="#58595B" font-family="'CooHew-Bold'" font-size="221.51">STUDIO PIELĘGNACJI</text>
</g>
<g>
	<g>
		<path fill="#F47D2B" stroke="#F47D2B" stroke-width="0.6254" stroke-miterlimit="10" d="M4400.967,4943.649
			c0,6.247-2.029,11.317-6.103,15.256c-4.075,3.969-9.242,5.941-15.477,5.941h-77.003c-6.237,0-11.332-1.973-15.285-5.941
			c-3.942-3.938-5.925-9.009-5.925-15.256v-256.602c0-6.254,1.982-11.347,5.925-15.285c3.954-3.969,9.048-5.911,15.285-5.911h77.003
			c6.235,0,11.402,1.942,15.477,5.911c4.074,3.938,6.103,9.031,6.103,15.285v69.547h-26.736v-67.269h-66.5v252.016h66.5v-73.566
			h26.736V4943.649z"/>
		<path fill="#F47D2B" stroke="#F47D2B" stroke-width="0.6254" stroke-miterlimit="10" d="M4567.961,4964.847h-26.364
			l-10.513-66.479h-59.425l-10.501,66.479h-25.608v-0.744l53.306-299.025h26.184L4567.961,4964.847z M4527.646,4874.863
			l-26.172-162.032l-26.364,162.032H4527.646z"/>
		<path fill="#F47D2B" stroke="#F47D2B" stroke-width="0.6254" stroke-miterlimit="10" d="M4731.125,4964.847h-27.892l-55.6-160.111
			l3.628-5.36h47.382v-110.049h-68.206v275.521h-26.556v-298.995h100.121c6.237,0,11.332,1.942,15.274,5.911
			c3.954,3.938,5.923,9.031,5.923,15.285v113.481c0,14.399-9.685,21.606-29.031,21.606c-1.912,0-4.711-0.119-8.411-0.291
			c-3.701-0.186-6.37-0.283-8.026-0.283C4696.925,4869.189,4714.06,4916.944,4731.125,4964.847z"/>
		<path fill="#F47D2B" stroke="#F47D2B" stroke-width="0.6254" stroke-miterlimit="10" d="M4885.093,4943.649
			c0,6.247-1.947,11.317-5.841,15.256c-3.883,3.969-8.942,5.941-15.177,5.941h-75.283c-6.237,0-11.369-1.973-15.382-5.941
			c-4.013-3.938-6.02-9.009-6.02-15.256v-75.874h26.555v73.566h64.59v-71.259l-82.542-99.737
			c-5.733-6.872-8.603-14.443-8.603-22.737v-60.561c0-6.254,2.006-11.347,6.02-15.285c4.013-3.969,9.145-5.911,15.382-5.911h75.283
			c6.235,0,11.294,1.942,15.177,5.911c3.894,3.938,5.841,9.031,5.841,15.285v69.547h-26.558v-67.269h-64.59v63.069l82.928,99.737
			c5.467,6.604,8.22,14.057,8.22,22.351V4943.649z"/>
	</g>
	<g>
		<path fill-rule="evenodd" clip-rule="evenodd" fill="#58595B" d="M4899.727,4387.233c47.754-31.434,65.768-43.287,117.777-77.505
			c-289.912-20.363-576.399-19.328-868.102-0.365c52.716,34.271,58.952,38.306,107.595,69.934
			c-1.202,2.145,53.93,44.247,52.728,46.384c-59.65-24.748-133.239-61.93-192.889-86.707
			c-147.48-61.313-303.012-82.889-460.778-93.804c-17.772-1.198-35.916-3.797-52.847-9.083
			c-33.348-10.379-38.695-34.174-11.164-56.428c44.556-36.006,98.44-41.098,152.742-35.067
			c10.995,1.229,23.864,17.765,29.418,30.116c21.904,48.662,62.762,57.194,94.498,16.008
			c117.064-151.967,273.006-230.484,462.542-238.242c160.098-6.566,320.614-9.836,480.772-6.344
			c197.864,4.273,361.724,84.064,485.64,241.555c36.288,46.094,72.953,38.113,98.438-16.126
			c5.986-12.717,24.586-29.87,34.896-28.359c47.117,7.065,93.946,18.188,139.524,32.253c10.55,3.246,23.122,24.972,21.293,35.977
			c-1.669,10.355-20.258,23.482-32.96,25.477c-53.078,8.384-106.6,15.189-160.219,18.621
			c-165.312,10.625-316.324,70.061-466.447,133.145c-19.503,8.197-79.813,39.66-99.208,48.096
			C4831.644,4434.385,4901.063,4389.587,4899.727,4387.233z M4901.748,3999.647c26.58,44.56,36.925,64.506,0.996,101.322
			c-25.884,26.49-53.102,52.758-73.589,83.254c-26.568,39.533-14.084,65.585,33.178,73.447c28.876,4.832,58.881,2.762,88.37,3.842
			c103.99,3.797,197.95-8.22,301.797-33.139C5176.505,4091.478,5066.397,3998.761,4901.748,3999.647z"/>
		<path fill="#58595B" d="M5394.691,4663.64c0,0,1.275-0.483,3.689-1.422c2.427-0.863,5.995-2.33,10.226-4.37
			c4.29-1.854,9.325-4.787,15.129-7.81c5.708-3.321,12.003-7.192,18.793-11.563c6.718-4.445,13.818-9.545,21.283-14.973
			c7.378-5.502,14.816-11.727,22.518-18.078c7.546-6.536,15.021-13.624,22.219-21.025c7.402-7.281,13.855-15.426,19.732-23.698
			c2.667-4.206,5.539-8.36,7.438-12.709l0.804-1.586l0.421-0.796l0.205-0.41l0.06-0.097c-0.672,1.921-0.179,0.462-0.313,0.864
			l0.075-0.238l1.139-3.917l2.272-7.765c1.863-5.354,1.934-9.851,2.956-14.608l1.213-7.021c0.181-2.494,0.348-4.996,0.542-7.445
			c0.912-9.806,1.069-19.492,1.201-28.725c-0.083-9.201-0.289-18.002-0.528-26.125c-0.588-8.101-0.624-15.62-1.152-22.254
			c-0.41-6.634-0.771-12.449-1.07-17.251c-0.661-9.567-0.866-15.121-0.866-15.121s1.851,5.22,4.747,14.421
			c2.764,9.255,6.453,22.567,9.614,38.91c1.491,8.174,3.028,17.086,3.978,26.653c0.877,9.567,1.921,19.686,1.441,30.377
			c-0.036,2.665-0.048,5.339-0.084,8.049c-0.3,2.837-0.612,5.673-0.901,8.532c-0.72,5.65-1.07,11.972-2.753,16.849l-2.114,7.81
			l-1.046,3.946l-0.082,0.238l-0.385,1.132l-0.049,0.119l-0.24,0.528l-0.492,1.035l-0.975,2.063
			c-2.427,5.695-5.636,10.646-8.784,15.694c-6.971,9.448-14.382,18.315-22.52,25.977c-7.881,7.981-16.581,14.638-24.849,21.152
			c-8.449,6.299-16.992,11.823-25.236,16.729c-8.255,4.974-16.354,9.083-23.937,12.642c-7.583,3.582-14.792,6.292-21.221,8.555
			c-6.501,2.093-12.149,3.775-17.051,4.661c-4.771,1.198-8.533,1.415-11.105,1.683
			C5396.048,4663.514,5394.691,4663.64,5394.691,4663.64z"/>
		<path fill="#58595B" d="M3777.091,4663.64c0,0-1.37-0.126-3.94-0.387c-2.585-0.268-6.347-0.484-11.129-1.683
			c-4.89-0.886-10.552-2.568-17.041-4.661c-6.429-2.263-13.638-4.951-21.208-8.555c-7.594-3.559-15.706-7.668-23.937-12.619
			c-8.257-4.929-16.812-10.453-25.236-16.752c-8.291-6.515-16.979-13.171-24.863-21.152c-8.123-7.661-15.561-16.528-22.519-25.977
			c-3.147-5.025-6.369-9.999-8.784-15.694l-0.984-2.063l-0.469-1.035l-0.253-0.528l-0.06-0.119l-0.383-1.132l-0.062-0.238
			l-1.057-3.946l-2.104-7.81c-1.707-4.877-2.055-11.198-2.751-16.849c-0.313-2.859-0.612-5.695-0.914-8.532
			c-0.024-2.71-0.048-5.384-0.083-8.049c-0.469-10.691,0.577-20.81,1.429-30.377c0.974-9.567,2.5-18.479,3.989-26.653
			c3.149-16.343,6.85-29.655,9.616-38.91c2.907-9.201,4.733-14.421,4.733-14.421s-0.205,5.554-0.866,15.121
			c-0.288,4.802-0.647,10.617-1.057,17.251c-0.528,6.634-0.577,14.153-1.165,22.254c-0.229,8.123-0.432,16.924-0.54,26.125
			c0.155,9.232,0.311,18.919,1.236,28.725c0.167,2.449,0.35,4.951,0.528,7.445l1.227,7.021c1.009,4.758,1.082,9.255,2.943,14.608
			l2.271,7.765l1.143,3.917l0.071,0.238c0.313,0.915-0.395-1.103-0.298-0.864l0.047,0.097l0.205,0.41l0.408,0.796l0.819,1.608
			c1.885,4.326,4.769,8.48,7.438,12.687c5.874,8.294,12.329,16.417,19.73,23.698c7.199,7.401,14.686,14.489,22.208,21.025
			c7.715,6.352,15.153,12.598,22.542,18.078c7.426,5.428,14.541,10.527,21.269,14.994c6.777,4.349,13.087,8.22,18.794,11.541
			c5.792,3.022,10.827,5.955,15.129,7.81c4.244,2.04,7.799,3.507,10.226,4.37C3775.805,4663.156,3777.091,4663.64,3777.091,4663.64z
			"/>
		<g>
			<line fill="#58595B" x1="4053.665" y1="4575.793" x2="4360.076" y2="4575.793"/>
			<rect x="4053.665" y="4569.093" fill="#58595B" width="306.411" height="13.408"/>
		</g>
		<g>
			<line fill="#58595B" x1="4818.063" y1="4575.793" x2="5124.474" y2="4575.793"/>
			<rect x="4818.063" y="4569.093" fill="#58595B" width="306.411" height="13.408"/>
		</g>
		<path fill="#58595B" d="M5481.74,4364.638c-14.565-8.838-44.197-9.731-57.789-0.551c-95.015,64.192-187.59,131.967-284.263,200.94
			c103.75-9.009,206.815-18.383,303.707-57.292c23.097-9.276,44.521-30.115,59.302-50.881
			C5521.528,4430.372,5511.048,4382.401,5481.74,4364.638z M5479.709,4438.979c-7.872,13.55-19.527,22.515-31.196,29.87
			c-11.836,7.207-24.188,12.546-36.026,16.417c-11.836,3.864-23.12,6.366-32.986,7.661c-9.779,1.52-18.133,1.779-24.007,1.779
			c-5.852-0.021-9.266-0.477-9.266-0.477s2.751-2.069,7.631-5.196c4.878-3.142,11.801-7.497,20.139-12.203
			c16.439-9.88,38.982-20.937,59.014-33.19c9.9-6.009,19.346-12.665,24.85-19.105c2.764-3.224,4.627-6.156,5.469-9.113
			c0.708-2.933,0.672-6.484-0.35-10.14c-1.238-3.604-2.944-7.207-4.843-10.386c-1.947-3.023-3.749-5.815-5.407-8.168
			c-3.628-4.542-5.515-7.431-5.515-7.431s3.352,0.774,8.88,2.621c2.678,1.153,6.237,2.575,9.913,4.906
			c1.826,1.251,3.751,2.591,5.792,3.991c1.886,1.727,3.881,3.604,5.78,5.889c3.689,4.639,7.27,11.123,7.944,19.246
			C5486.137,4424.051,5483.553,4432.292,5479.709,4438.979z"/>
		<path fill="#58595B" d="M3672.39,4456.854c14.768,20.766,36.182,41.604,59.291,50.881
			c96.889,38.909,199.967,48.283,303.719,57.292c-96.687-68.974-189.274-136.748-284.276-200.94
			c-13.591-9.181-43.212-8.287-57.789,0.551C3664.014,4382.401,3653.56,4430.372,3672.39,4456.854z M3689.551,4415.95
			c0.685-8.123,4.24-14.607,7.94-19.246c1.912-2.285,3.894-4.162,5.781-5.889c2.044-1.4,3.978-2.74,5.804-3.991
			c3.654-2.331,7.233-3.753,9.902-4.906c5.528-1.847,8.893-2.621,8.893-2.621s-1.887,2.889-5.528,7.431
			c-1.661,2.353-3.451,5.145-5.409,8.168c-1.91,3.179-3.604,6.782-4.843,10.386c-1.02,3.655-1.044,7.207-0.335,10.14
			c0.83,2.957,2.703,5.89,5.456,9.113c5.504,6.44,14.937,13.097,24.862,19.105c20.021,12.254,42.563,23.311,59.015,33.19
			c8.338,4.706,15.259,9.062,20.126,12.203c4.878,3.127,7.643,5.196,7.643,5.196s-3.412,0.455-9.277,0.477
			c-5.865,0-14.228-0.26-23.998-1.779c-9.865-1.295-21.148-3.797-32.984-7.661c-11.848-3.871-24.203-9.21-36.037-16.417
			c-11.645-7.355-23.326-16.32-31.196-29.87C3691.531,4432.292,3688.936,4424.051,3689.551,4415.95z"/>
		<path fill="#58595B" d="M4492.33,4631.551h-55.241c-19.203,0-31.916-1.102-38.118-3.291c-6.198-2.188-10.718-6.269-13.554-12.255
			c-2.835-5.963-4.253-15.166-4.253-27.569V4571.4c0-11.95,1.971-20.817,5.9-26.609c3.93-5.792,11.416-9.925,22.459-12.427
			c-9.9-2.256-16.547-5.523-19.911-9.753c-3.365-4.229-5.048-11.704-5.048-22.447c0-15.866,2.379-27.347,7.151-34.509
			c4.757-7.162,11.019-11.875,18.77-14.229c7.75-2.359,19.153-3.514,34.198-3.514h47.646V4631.551z M4434.649,4480.337
			c-1.705,0.604-3.075,2.092-4.145,4.371c-1.058,2.33-1.586,6.35-1.586,12.091c0,10.885,0.649,17.496,1.923,19.804
			c1.297,2.309,4.277,3.433,8.964,3.433c1.143,0,2.729,0.075,4.758,0.149v-40.86
			C4439.66,4479.399,4436.343,4479.757,4434.649,4480.337z M4431.418,4551.596c-1.658,1.66-2.5,6.418-2.5,14.272v17.14
			c0,7.423,0.925,12.062,2.786,13.96c1.852,1.898,6.143,2.934,12.858,3.172v-51.381
			C4437.462,4548.976,4433.088,4549.936,4431.418,4551.596z"/>
		<path fill="#58595B" d="M4656.813,4447.913v183.638h-41.746l-0.06-123.964l-16.62,123.964h-29.608l-17.521-121.149l-0.062,121.149
			h-41.746v-183.638h61.803c1.826,11.033,3.711,24.033,5.659,39.035l6.79,46.72l10.971-85.755H4656.813z"/>
		<path fill="#58595B" d="M4675.979,4447.913h47.646c15.045,0,26.447,1.154,34.198,3.514c7.75,2.354,14.001,7.066,18.783,14.229
			c4.759,7.162,7.138,18.643,7.138,34.509c0,10.743-1.683,18.219-5.048,22.447c-3.363,4.229-9.997,7.497-19.911,9.753
			c11.043,2.502,18.529,6.635,22.458,12.427c3.94,5.792,5.9,14.659,5.9,26.609v17.035c0,12.403-1.418,21.606-4.253,27.569
			c-2.836,5.986-7.343,10.066-13.554,12.255c-6.202,2.189-18.903,3.291-38.118,3.291h-55.24V4447.913z M4723.733,4479.324v40.86
			c2.042-0.074,3.627-0.149,4.771-0.149c4.687,0,7.667-1.124,8.953-3.433c1.285-2.308,1.934-8.919,1.934-19.804
			c0-5.741-0.529-9.761-1.586-12.091c-1.07-2.279-2.44-3.768-4.145-4.371C4731.953,4479.757,4728.649,4479.399,4723.733,4479.324z
			 M4723.733,4548.759v51.381c6.742-0.238,11.032-1.273,12.882-3.172c1.851-1.898,2.775-6.537,2.775-13.96v-17.14
			c0-7.854-0.828-12.612-2.5-14.272C4735.234,4549.936,4730.847,4548.976,4723.733,4548.759z"/>
	</g>
</g>
<g>
	<g>
		<path stroke="#000000" stroke-width="0.6254" stroke-miterlimit="10" d="M1199.016,2222.754c0,6.247-2.031,11.324-6.105,15.263
			c-4.074,3.969-9.241,5.934-15.477,5.934h-77.003c-6.237,0-11.332-1.965-15.285-5.934c-3.941-3.938-5.925-9.016-5.925-15.263
			v-256.602c0-6.247,1.984-11.34,5.925-15.285c3.953-3.961,9.048-5.912,15.285-5.912h77.003c6.235,0,11.402,1.951,15.477,5.912
			c4.074,3.945,6.105,9.038,6.105,15.285v69.554h-26.738v-67.269h-66.499v252.009h66.499v-73.567h26.738V2222.754z"/>
		<path stroke="#000000" stroke-width="0.6254" stroke-miterlimit="10" d="M1366.01,2243.95h-26.364l-10.515-66.471h-59.423
			l-10.503,66.471h-25.606v-0.744l53.305-299.018h26.185L1366.01,2243.95z M1325.694,2153.975l-26.172-162.032l-26.364,162.032
			H1325.694z"/>
		<path stroke="#000000" stroke-width="0.6254" stroke-miterlimit="10" d="M1529.171,2243.95h-27.892l-55.6-160.104l3.628-5.36
			h47.382v-110.049h-68.207v275.513h-26.555v-298.995h100.122c6.235,0,11.332,1.951,15.272,5.912
			c3.953,3.945,5.924,9.038,5.924,15.285v113.488c0,14.392-9.686,21.606-29.032,21.606c-1.91,0-4.709-0.127-8.411-0.291
			c-3.701-0.193-6.37-0.29-8.026-0.29C1494.971,2148.301,1512.107,2196.056,1529.171,2243.95z"/>
		<path stroke="#000000" stroke-width="0.6254" stroke-miterlimit="10" d="M1683.14,2222.754c0,6.247-1.947,11.324-5.841,15.263
			c-3.881,3.969-8.939,5.934-15.177,5.934h-75.283c-6.237,0-11.369-1.965-15.382-5.934c-4.014-3.938-6.02-9.016-6.02-15.263v-75.875
			h26.555v73.567h64.59v-71.26l-82.542-99.736c-5.73-6.872-8.603-14.444-8.603-22.73v-60.567c0-6.247,2.006-11.34,6.02-15.285
			c4.013-3.961,9.145-5.912,15.382-5.912h75.283c6.237,0,11.296,1.951,15.177,5.912c3.894,3.945,5.841,9.038,5.841,15.285v69.554
			h-26.558v-67.269h-64.59v63.062l82.928,99.737c5.467,6.611,8.22,14.057,8.22,22.351V2222.754z"/>
	</g>
	<g>
		<path fill-rule="evenodd" clip-rule="evenodd" d="M1697.776,1666.338c47.754-31.434,65.766-43.28,117.775-77.506
			c-289.912-20.355-576.401-19.32-868.104-0.357c52.718,34.271,58.954,38.306,107.598,69.934
			c-1.202,2.137,53.93,44.248,52.729,46.384c-59.651-24.755-133.241-61.937-192.891-86.715
			c-147.48-61.304-303.011-82.888-460.776-93.795c-17.774-1.207-35.918-3.797-52.849-9.091
			c-33.348-10.379-38.694-34.174-11.164-56.428c44.559-35.998,98.439-41.098,152.742-35.06
			c10.997,1.221,23.866,17.757,29.418,30.109c21.906,48.67,62.762,57.202,94.498,16.007
			c117.065-151.958,273.005-230.477,462.542-238.242c160.098-6.559,320.614-9.828,480.772-6.343
			c197.865,4.281,361.724,84.065,485.638,241.555c36.29,46.101,72.952,38.12,98.441-16.126
			c5.984-12.709,24.584-29.871,34.895-28.359c47.116,7.065,93.946,18.196,139.526,32.253c10.55,3.246,23.119,24.971,21.291,35.983
			c-1.669,10.356-20.259,23.475-32.96,25.47c-53.077,8.391-106.6,15.188-160.217,18.628
			c-165.313,10.625-316.324,70.053-466.449,133.145c-19.503,8.197-79.813,39.653-99.209,48.089
			C1629.691,1713.489,1699.11,1668.698,1697.776,1666.338z M1699.795,1278.758c26.579,44.552,36.927,64.506,0.996,101.323
			c-25.884,26.483-53.101,52.75-73.59,83.253c-26.568,39.535-14.083,65.585,33.179,73.44c28.876,4.832,58.881,2.762,88.369,3.849
			c103.992,3.797,197.95-8.22,301.797-33.146C1974.554,1370.588,1864.446,1277.865,1699.795,1278.758z"/>
		<path d="M2192.739,1942.744c0,0,1.274-0.477,3.689-1.415c2.427-0.871,5.997-2.33,10.226-4.378c4.29-1.846,9.325-4.779,15.129-7.81
			c5.709-3.313,12.006-7.185,18.794-11.563c6.718-4.445,13.82-9.537,21.282-14.973c7.378-5.502,14.816-11.727,22.519-18.069
			c7.547-6.537,15.021-13.625,22.219-21.033c7.402-7.282,13.855-15.427,19.731-23.691c2.667-4.207,5.539-8.369,7.438-12.717
			l0.807-1.585l0.42-0.79l0.203-0.409l0.062-0.097c-0.674,1.921-0.181,0.454-0.313,0.864l0.072-0.238l1.142-3.916l2.271-7.766
			c1.863-5.36,1.934-9.857,2.956-14.615l1.213-7.014c0.181-2.501,0.349-5.003,0.542-7.453c0.912-9.806,1.068-19.492,1.2-28.717
			c-0.084-9.209-0.288-18.002-0.528-26.125c-0.588-8.101-0.624-15.62-1.152-22.254c-0.409-6.634-0.771-12.448-1.07-17.258
			c-0.66-9.567-0.865-15.114-0.865-15.114s1.85,5.212,4.746,14.414c2.765,9.254,6.453,22.567,9.614,38.909
			c1.49,8.175,3.029,17.094,3.978,26.654c0.876,9.567,1.923,19.685,1.442,30.376c-0.037,2.673-0.049,5.338-0.086,8.056
			c-0.3,2.836-0.612,5.673-0.9,8.532c-0.721,5.644-1.068,11.964-2.751,16.849l-2.115,7.81l-1.046,3.938l-0.083,0.238l-0.386,1.132
			l-0.049,0.119l-0.239,0.528l-0.494,1.035l-0.971,2.07c-2.43,5.695-5.637,10.646-8.786,15.687
			c-6.969,9.448-14.384,18.315-22.518,25.984c-7.883,7.981-16.583,14.638-24.851,21.152c-8.449,6.291-16.992,11.823-25.236,16.722
			c-8.255,4.974-16.354,9.084-23.937,12.643c-7.581,3.581-14.792,6.299-21.221,8.555c-6.502,2.092-12.149,3.774-17.052,4.66
			c-4.771,1.206-8.532,1.423-11.103,1.683C2194.097,1942.625,2192.739,1942.744,2192.739,1942.744z"/>
		<path d="M575.138,1942.744c0,0-1.37-0.119-3.942-0.388c-2.584-0.26-6.344-0.477-11.127-1.683
			c-4.89-0.886-10.551-2.568-17.039-4.66c-6.429-2.256-13.64-4.951-21.21-8.555c-7.594-3.559-15.705-7.669-23.937-12.62
			c-8.255-4.921-16.812-10.453-25.235-16.744c-8.291-6.515-16.979-13.171-24.862-21.152c-8.122-7.668-15.563-16.536-22.52-25.984
			c-3.147-5.018-6.368-9.992-8.784-15.687l-0.985-2.07l-0.468-1.035l-0.253-0.528l-0.06-0.119l-0.384-1.132l-0.062-0.238
			l-1.058-3.938l-2.103-7.81c-1.705-4.884-2.056-11.205-2.751-16.849c-0.313-2.859-0.613-5.696-0.914-8.532
			c-0.024-2.718-0.047-5.383-0.084-8.056c-0.469-10.691,0.577-20.81,1.429-30.376c0.974-9.56,2.5-18.479,3.991-26.654
			c3.147-16.342,6.85-29.655,9.614-38.909c2.907-9.202,4.733-14.414,4.733-14.414s-0.205,5.547-0.866,15.114
			c-0.288,4.81-0.647,10.625-1.057,17.258c-0.529,6.634-0.577,14.153-1.165,22.254c-0.229,8.123-0.432,16.916-0.542,26.125
			c0.157,9.225,0.313,18.911,1.238,28.717c0.17,2.449,0.351,4.951,0.529,7.453l1.227,7.014c1.009,4.757,1.081,9.254,2.944,14.615
			l2.27,7.766l1.142,3.916l0.072,0.238c0.313,0.916-0.396-1.109-0.3-0.864l0.047,0.097l0.205,0.409l0.41,0.79l0.817,1.608
			c1.885,4.326,4.771,8.488,7.438,12.694c5.876,8.287,12.329,16.409,19.73,23.691c7.199,7.408,14.686,14.496,22.207,21.033
			c7.715,6.343,15.153,12.59,22.542,18.069c7.427,5.436,14.541,10.527,21.27,15.002c6.779,4.349,13.086,8.22,18.796,11.533
			c5.791,3.03,10.825,5.964,15.129,7.81c4.242,2.048,7.797,3.507,10.226,4.378C573.851,1942.268,575.138,1942.744,575.138,1942.744z
			"/>
		<g>
			<line x1="851.711" y1="1854.904" x2="1158.123" y2="1854.904"/>
			<rect x="851.711" y="1848.196" width="306.411" height="13.409"/>
		</g>
		<g>
			<line x1="1616.11" y1="1854.904" x2="1922.521" y2="1854.904"/>
			<rect x="1616.11" y="1848.196" width="306.411" height="13.409"/>
		</g>
		<path d="M2279.787,1643.749c-14.564-8.845-44.196-9.731-57.788-0.551c-95.014,64.193-187.59,131.96-284.262,200.941
			c103.75-9.016,206.816-18.39,303.706-57.299c23.096-9.277,44.521-30.109,59.302-50.874
			C2319.575,1709.476,2309.095,1661.506,2279.787,1643.749z M2277.756,1718.083c-7.871,13.558-19.527,22.522-31.195,29.871
			c-11.837,7.214-24.188,12.545-36.026,16.417c-11.836,3.872-23.119,6.366-32.984,7.669c-9.781,1.511-18.133,1.779-24.009,1.779
			c-5.852-0.03-9.266-0.484-9.266-0.484s2.753-2.063,7.632-5.189c4.879-3.149,11.801-7.498,20.14-12.21
			c16.439-9.88,38.981-20.929,59.013-33.191c9.902-6.008,19.347-12.665,24.851-19.104c2.765-3.224,4.628-6.15,5.469-9.105
			c0.707-2.934,0.672-6.493-0.35-10.148c-1.239-3.604-2.943-7.207-4.842-10.379c-1.946-3.03-3.75-5.815-5.408-8.175
			c-3.628-4.542-5.516-7.423-5.516-7.423s3.353,0.767,8.881,2.621c2.68,1.154,6.237,2.568,9.913,4.899
			c1.828,1.251,3.749,2.598,5.792,3.991c1.888,1.735,3.881,3.604,5.779,5.889c3.689,4.638,7.271,11.131,7.944,19.253
			C2284.185,1703.155,2281.602,1711.404,2277.756,1718.083z"/>
		<path d="M470.436,1735.966c14.77,20.765,36.183,41.597,59.291,50.874c96.89,38.909,199.968,48.283,303.72,57.299
			c-96.687-68.98-189.274-136.748-284.276-200.941c-13.592-9.18-43.213-8.294-57.788,0.551
			C462.062,1661.506,451.607,1709.476,470.436,1735.966z M487.596,1695.062c0.685-8.123,4.242-14.615,7.944-19.253
			c1.91-2.286,3.894-4.154,5.78-5.889c2.043-1.393,3.978-2.74,5.803-3.991c3.654-2.331,7.235-3.745,9.902-4.899
			c5.528-1.854,8.891-2.621,8.891-2.621s-1.884,2.881-5.525,7.423c-1.659,2.36-3.449,5.145-5.407,8.175
			c-1.912,3.172-3.605,6.775-4.844,10.379c-1.021,3.655-1.046,7.214-0.337,10.148c0.83,2.956,2.705,5.881,5.456,9.105
			c5.504,6.44,14.937,13.096,24.861,19.104c20.021,12.262,42.563,23.311,59.016,33.191c8.338,4.713,15.261,9.061,20.126,12.21
			c4.879,3.127,7.643,5.189,7.643,5.189s-3.412,0.454-9.276,0.484c-5.863,0-14.229-0.268-23.997-1.779
			c-9.866-1.303-21.149-3.797-32.986-7.669c-11.847-3.872-24.2-9.202-36.036-16.417c-11.645-7.349-23.324-16.313-31.196-29.871
			C489.58,1711.404,486.984,1703.155,487.596,1695.062z"/>
		<path d="M1290.376,1910.662h-55.24c-19.201,0-31.916-1.109-38.116-3.291c-6.199-2.188-10.719-6.276-13.554-12.262
			c-2.837-5.956-4.255-15.167-4.255-27.563v-17.042c0-11.942,1.971-20.81,5.9-26.602c3.928-5.792,11.415-9.925,22.459-12.426
			c-9.9-2.263-16.548-5.532-19.911-9.761c-3.365-4.229-5.048-11.704-5.048-22.448c0-15.858,2.381-27.346,7.151-34.509
			c4.758-7.162,11.019-11.875,18.77-14.228c7.751-2.353,19.153-3.506,34.198-3.506h47.646V1910.662z M1232.699,1759.441
			c-1.707,0.603-3.077,2.092-4.147,4.378c-1.058,2.331-1.586,6.343-1.586,12.091c0,10.885,0.649,17.489,1.923,19.797
			c1.297,2.308,4.277,3.439,8.964,3.439c1.144,0,2.728,0.075,4.76,0.142v-40.852
			C1237.708,1758.503,1234.392,1758.868,1232.699,1759.441z M1229.465,1830.7c-1.658,1.661-2.5,6.418-2.5,14.28v17.131
			c0,7.431,0.925,12.069,2.788,13.968c1.851,1.898,6.141,2.933,12.858,3.171v-51.387
			C1235.509,1828.079,1231.135,1829.047,1229.465,1830.7z"/>
		<path d="M1454.86,1727.024v183.638h-41.745l-0.06-123.964l-16.62,123.964h-29.608l-17.521-121.149l-0.06,121.149h-41.745v-183.638
			h61.801c1.826,11.026,3.714,24.033,5.66,39.028l6.789,46.719l10.971-85.747H1454.86z"/>
		<path d="M1474.026,1727.024h47.646c15.045,0,26.449,1.154,34.2,3.506c7.75,2.353,13.999,7.066,18.78,14.228
			c4.76,7.163,7.139,18.65,7.139,34.509c0,10.744-1.683,18.219-5.046,22.448c-3.366,4.229-9.999,7.498-19.913,9.761
			c11.043,2.501,18.529,6.634,22.459,12.426c3.942,5.792,5.9,14.66,5.9,26.602v17.042c0,12.396-1.418,21.606-4.253,27.563
			c-2.837,5.985-7.343,10.073-13.555,12.262c-6.202,2.182-18.903,3.291-38.118,3.291h-55.24V1727.024z M1521.78,1758.436v40.852
			c2.044-0.067,3.63-0.142,4.771-0.142c4.687,0,7.666-1.131,8.952-3.439c1.286-2.308,1.935-8.912,1.935-19.797
			c0-5.748-0.529-9.761-1.586-12.091c-1.068-2.286-2.438-3.775-4.146-4.378C1530,1758.868,1526.696,1758.503,1521.78,1758.436z
			 M1521.78,1827.863v51.387c6.742-0.238,11.032-1.273,12.883-3.171c1.85-1.899,2.775-6.537,2.775-13.968v-17.131
			c0-7.862-0.828-12.62-2.5-14.28C1533.282,1829.047,1528.894,1828.079,1521.78,1827.863z"/>
	</g>
</g>
<g>
	<text transform="matrix(1 0 0 1 281.729 1133.8037)" font-family="'CooHew-Bold'" font-size="413.4166">POJAZDÓW</text>
	<text transform="matrix(1 0 0 1 304.5986 721.4834)" font-family="'CooHew-Bold'" font-size="221.51">STUDIO PIELĘGNACJI</text>
</g>
<g>
	<g>
		<path stroke="#000000" stroke-width="0.6254" stroke-miterlimit="10" d="M1201.67,4943.649c0,6.247-2.031,11.317-6.104,15.256
			c-4.074,3.969-9.241,5.941-15.477,5.941h-77.003c-6.237,0-11.332-1.973-15.285-5.941c-3.942-3.938-5.925-9.009-5.925-15.256
			v-256.602c0-6.254,1.982-11.347,5.925-15.285c3.953-3.969,9.048-5.911,15.285-5.911h77.003c6.235,0,11.402,1.942,15.477,5.911
			c4.072,3.938,6.104,9.031,6.104,15.285v69.547h-26.736v-67.269h-66.5v252.016h66.5v-73.566h26.736V4943.649z"/>
		<path stroke="#000000" stroke-width="0.6254" stroke-miterlimit="10" d="M1368.667,4964.847H1342.3l-10.515-66.479h-59.421
			l-10.503,66.479h-25.606v-0.744l53.305-299.025h26.185L1368.667,4964.847z M1328.35,4874.863l-26.173-162.032l-26.363,162.032
			H1328.35z"/>
		<path stroke="#000000" stroke-width="0.6254" stroke-miterlimit="10" d="M1531.826,4964.847h-27.89l-55.602-160.111l3.63-5.36
			h47.382v-110.049h-68.207v275.521h-26.557v-298.995h100.122c6.237,0,11.332,1.942,15.273,5.911
			c3.954,3.938,5.925,9.031,5.925,15.285v113.481c0,14.399-9.687,21.606-29.032,21.606c-1.91,0-4.711-0.119-8.412-0.291
			c-3.702-0.186-6.369-0.283-8.027-0.283C1497.627,4869.189,1514.763,4916.944,1531.826,4964.847z"/>
		<path stroke="#000000" stroke-width="0.6254" stroke-miterlimit="10" d="M1685.794,4943.649c0,6.247-1.945,11.317-5.839,15.256
			c-3.88,3.969-8.94,5.941-15.177,5.941h-75.284c-6.235,0-11.367-1.973-15.381-5.941c-4.013-3.938-6.021-9.009-6.021-15.256v-75.874
			h26.557v73.566h64.59v-71.259l-82.542-99.737c-5.733-6.872-8.604-14.443-8.604-22.737v-60.561c0-6.254,2.008-11.347,6.021-15.285
			c4.014-3.969,9.146-5.911,15.381-5.911h75.284c6.237,0,11.297,1.942,15.177,5.911c3.894,3.938,5.839,9.031,5.839,15.285v69.547
			h-26.556v-67.269h-64.59v63.069l82.928,99.737c5.467,6.604,8.218,14.057,8.218,22.351V4943.649z"/>
	</g>
	<g>
		<path fill-rule="evenodd" clip-rule="evenodd" d="M1700.432,4387.233c47.754-31.434,65.766-43.287,117.773-77.505
			c-289.912-20.363-576.399-19.328-868.102-0.365c52.717,34.271,58.954,38.306,107.598,69.934
			c-1.203,2.145,53.93,44.247,52.728,46.384c-59.65-24.748-133.239-61.93-192.889-86.707
			c-147.48-61.313-303.01-82.889-460.776-93.804c-17.773-1.198-35.918-3.797-52.851-9.083
			c-33.346-10.379-38.693-34.174-11.163-56.428c44.557-36.006,98.44-41.098,152.743-35.067
			c10.994,1.229,23.865,17.765,29.416,30.116c21.908,48.662,62.764,57.194,94.499,16.008
			c117.066-151.967,273.004-230.484,462.543-238.242c160.098-6.566,320.614-9.836,480.771-6.344
			c197.864,4.273,361.725,84.064,485.638,241.555c36.291,46.094,72.953,38.113,98.44-16.126
			c5.983-12.717,24.586-29.87,34.896-28.359c47.118,7.065,93.947,18.188,139.525,32.253c10.552,3.246,23.121,24.972,21.293,35.977
			c-1.669,10.355-20.259,23.482-32.96,25.477c-53.077,8.384-106.6,15.189-160.217,18.621
			c-165.313,10.625-316.326,70.061-466.449,133.145c-19.503,8.197-79.813,39.66-99.209,48.096
			C1632.344,4434.385,1701.764,4389.587,1700.432,4387.233z M1702.45,3999.647c26.581,44.56,36.927,64.506,0.997,101.322
			c-25.883,26.49-53.102,52.758-73.589,83.254c-26.569,39.533-14.083,65.585,33.178,73.447c28.875,4.832,58.882,2.762,88.37,3.842
			c103.992,3.797,197.95-8.22,301.797-33.139C1977.208,4091.478,1867.102,3998.761,1702.45,3999.647z"/>
		<path d="M2195.395,4663.64c0,0,1.272-0.483,3.688-1.422c2.428-0.863,5.996-2.33,10.227-4.37c4.29-1.854,9.325-4.787,15.129-7.81
			c5.709-3.321,12.004-7.192,18.794-11.563c6.717-4.445,13.818-9.545,21.282-14.973c7.376-5.502,14.815-11.727,22.519-18.078
			c7.545-6.536,15.021-13.624,22.218-21.025c7.402-7.281,13.856-15.426,19.732-23.698c2.667-4.206,5.539-8.36,7.438-12.709
			l0.805-1.586l0.42-0.796l0.205-0.41l0.06-0.097c-0.672,1.921-0.179,0.462-0.311,0.864l0.07-0.238l1.143-3.917l2.271-7.765
			c1.862-5.354,1.934-9.851,2.955-14.608l1.214-7.021c0.181-2.494,0.349-4.996,0.542-7.445c0.912-9.806,1.068-19.492,1.2-28.725
			c-0.084-9.201-0.288-18.002-0.528-26.125c-0.588-8.101-0.626-15.62-1.154-22.254c-0.407-6.634-0.769-12.449-1.068-17.251
			c-0.661-9.567-0.865-15.121-0.865-15.121s1.85,5.22,4.746,14.421c2.764,9.255,6.453,22.567,9.615,38.91
			c1.488,8.174,3.028,17.086,3.978,26.653c0.876,9.567,1.923,19.686,1.44,30.377c-0.035,2.665-0.047,5.339-0.084,8.049
			c-0.3,2.837-0.612,5.673-0.9,8.532c-0.721,5.65-1.07,11.972-2.751,16.849l-2.117,7.81l-1.044,3.946l-0.086,0.238l-0.383,1.132
			l-0.049,0.119l-0.24,0.528l-0.493,1.035l-0.974,2.063c-2.427,5.695-5.636,10.646-8.783,15.694
			c-6.969,9.448-14.384,18.315-22.519,25.977c-7.884,7.981-16.584,14.638-24.851,21.152c-8.448,6.299-16.991,11.823-25.235,16.729
			c-8.255,4.974-16.354,9.083-23.937,12.642c-7.583,3.582-14.792,6.292-21.221,8.555c-6.502,2.093-12.149,3.775-17.052,4.661
			c-4.771,1.198-8.532,1.415-11.103,1.683C2196.751,4663.514,2195.395,4663.64,2195.395,4663.64z"/>
		<path d="M577.793,4663.64c0,0-1.369-0.126-3.942-0.387c-2.583-0.268-6.345-0.484-11.127-1.683
			c-4.891-0.886-10.55-2.568-17.04-4.661c-6.427-2.263-13.638-4.951-21.208-8.555c-7.594-3.559-15.706-7.668-23.937-12.619
			c-8.256-4.929-16.811-10.453-25.235-16.752c-8.293-6.515-16.979-13.171-24.862-21.152c-8.124-7.661-15.563-16.528-22.52-25.977
			c-3.147-5.025-6.368-9.999-8.784-15.694l-0.984-2.063l-0.469-1.035l-0.254-0.528l-0.06-0.119l-0.385-1.132l-0.06-0.238
			l-1.058-3.946l-2.103-7.81c-1.707-4.877-2.056-11.198-2.751-16.849c-0.313-2.859-0.614-5.695-0.914-8.532
			c-0.024-2.71-0.049-5.384-0.084-8.049c-0.469-10.691,0.577-20.81,1.43-30.377c0.974-9.567,2.499-18.479,3.99-26.653
			c3.147-16.343,6.848-29.655,9.612-38.91c2.909-9.201,4.735-14.421,4.735-14.421s-0.206,5.554-0.866,15.121
			c-0.288,4.802-0.649,10.617-1.057,17.251c-0.53,6.634-0.577,14.153-1.165,22.254c-0.229,8.123-0.435,16.924-0.542,26.125
			c0.156,9.232,0.313,18.919,1.237,28.725c0.17,2.449,0.349,4.951,0.529,7.445l1.227,7.021c1.009,4.758,1.081,9.255,2.942,14.608
			l2.272,7.765l1.142,3.917l0.072,0.238c0.313,0.915-0.396-1.103-0.302-0.864l0.049,0.097l0.204,0.41l0.408,0.796l0.817,1.608
			c1.887,4.326,4.771,8.48,7.439,12.687c5.876,8.294,12.327,16.417,19.729,23.698c7.198,7.401,14.685,14.489,22.208,21.025
			c7.715,6.352,15.153,12.598,22.542,18.078c7.427,5.428,14.541,10.527,21.27,14.994c6.777,4.349,13.087,8.22,18.794,11.541
			c5.792,3.022,10.827,5.955,15.129,7.81c4.242,2.04,7.798,3.507,10.226,4.37C576.507,4663.156,577.793,4663.64,577.793,4663.64z"/>
		<g>
			<line x1="854.368" y1="4575.793" x2="1160.779" y2="4575.793"/>
			<rect x="854.368" y="4569.093" width="306.411" height="13.408"/>
		</g>
		<g>
			<line x1="1618.766" y1="4575.793" x2="1925.177" y2="4575.793"/>
			<rect x="1618.766" y="4569.093" width="306.411" height="13.408"/>
		</g>
		<path d="M2282.443,4364.638c-14.564-8.838-44.197-9.731-57.788-0.551c-95.015,64.192-187.592,131.967-284.265,200.94
			c103.752-9.009,206.818-18.383,303.708-57.292c23.096-9.276,44.521-30.115,59.302-50.881
			C2322.229,4430.372,2311.751,4382.401,2282.443,4364.638z M2280.413,4438.979c-7.872,13.55-19.527,22.515-31.196,29.87
			c-11.836,7.207-24.189,12.546-36.025,16.417c-11.836,3.864-23.119,6.366-32.985,7.661c-9.781,1.52-18.133,1.779-24.01,1.779
			c-5.852-0.021-9.266-0.477-9.266-0.477s2.753-2.069,7.632-5.196c4.879-3.142,11.799-7.497,20.14-12.203
			c16.438-9.88,38.981-20.937,59.013-33.19c9.902-6.009,19.347-12.665,24.851-19.105c2.764-3.224,4.626-6.156,5.467-9.113
			c0.709-2.933,0.674-6.484-0.348-10.14c-1.238-3.604-2.945-7.207-4.844-10.386c-1.946-3.023-3.748-5.815-5.407-8.168
			c-3.629-4.542-5.515-7.431-5.515-7.431s3.353,0.774,8.88,2.621c2.681,1.153,6.236,2.575,9.914,4.906
			c1.826,1.251,3.748,2.591,5.792,3.991c1.886,1.727,3.881,3.604,5.779,5.889c3.689,4.639,7.271,11.123,7.942,19.246
			C2286.841,4424.051,2284.258,4432.292,2280.413,4438.979z"/>
		<path d="M473.092,4456.854c14.768,20.766,36.183,41.604,59.291,50.881c96.889,38.909,199.968,48.283,303.72,57.292
			c-96.687-68.974-189.274-136.748-284.278-200.94c-13.59-9.181-43.211-8.287-57.787,0.551
			C464.716,4382.401,454.263,4430.372,473.092,4456.854z M490.252,4415.95c0.685-8.123,4.241-14.607,7.943-19.246
			c1.91-2.285,3.893-4.162,5.78-5.889c2.041-1.4,3.978-2.74,5.803-3.991c3.654-2.331,7.235-3.753,9.902-4.906
			c5.528-1.847,8.892-2.621,8.892-2.621s-1.885,2.889-5.528,7.431c-1.656,2.353-3.446,5.145-5.406,8.168
			c-1.91,3.179-3.604,6.782-4.842,10.386c-1.021,3.655-1.046,7.207-0.337,10.14c0.828,2.957,2.703,5.89,5.456,9.113
			c5.504,6.44,14.937,13.097,24.862,19.105c20.021,12.254,42.563,23.311,59.012,33.19c8.341,4.706,15.262,9.062,20.129,12.203
			c4.879,3.127,7.643,5.196,7.643,5.196s-3.414,0.455-9.277,0.477c-5.864,0-14.228-0.26-23.998-1.779
			c-9.864-1.295-21.147-3.797-32.984-7.661c-11.849-3.871-24.2-9.21-36.037-16.417c-11.645-7.355-23.324-16.32-31.195-29.87
			C492.235,4432.292,489.64,4424.051,490.252,4415.95z"/>
		<path d="M1293.033,4631.551h-55.24c-19.203,0-31.916-1.102-38.116-3.291c-6.201-2.188-10.719-6.269-13.556-12.255
			c-2.835-5.963-4.253-15.166-4.253-27.569V4571.4c0-11.95,1.971-20.817,5.9-26.609c3.929-5.792,11.415-9.925,22.458-12.427
			c-9.901-2.256-16.547-5.523-19.91-9.753c-3.365-4.229-5.048-11.704-5.048-22.447c0-15.866,2.379-27.347,7.149-34.509
			c4.76-7.162,11.019-11.875,18.77-14.229c7.752-2.359,19.155-3.514,34.2-3.514h47.646V4631.551z M1235.352,4480.337
			c-1.704,0.604-3.074,2.092-4.145,4.371c-1.058,2.33-1.586,6.35-1.586,12.091c0,10.885,0.649,17.496,1.923,19.804
			c1.297,2.309,4.277,3.433,8.964,3.433c1.141,0,2.727,0.075,4.76,0.149v-40.86
			C1240.365,4479.399,1237.048,4479.757,1235.352,4480.337z M1232.122,4551.596c-1.659,1.66-2.5,6.418-2.5,14.272v17.14
			c0,7.423,0.925,12.062,2.788,13.96c1.851,1.898,6.141,2.934,12.858,3.172v-51.381
			C1238.164,4548.976,1233.791,4549.936,1232.122,4551.596z"/>
		<path d="M1457.516,4447.913v183.638h-41.745l-0.06-123.964l-16.62,123.964h-29.608l-17.521-121.149l-0.06,121.149h-41.746
			v-183.638h61.802c1.826,11.033,3.712,24.033,5.658,39.035l6.79,46.72l10.971-85.755H1457.516z"/>
		<path d="M1476.682,4447.913h47.646c15.045,0,26.447,1.154,34.198,3.514c7.752,2.354,14.001,7.066,18.782,14.229
			c4.76,7.162,7.139,18.643,7.139,34.509c0,10.743-1.684,18.219-5.049,22.447c-3.363,4.229-9.997,7.497-19.91,9.753
			c11.043,2.502,18.529,6.635,22.459,12.427c3.942,5.792,5.9,14.659,5.9,26.609v17.035c0,12.403-1.419,21.606-4.253,27.569
			c-2.837,5.986-7.344,10.066-13.557,12.255c-6.2,2.189-18.901,3.291-38.116,3.291h-55.24V4447.913z M1524.436,4479.324v40.86
			c2.042-0.074,3.63-0.149,4.77-0.149c4.688,0,7.667-1.124,8.954-3.433c1.284-2.308,1.935-8.919,1.935-19.804
			c0-5.741-0.529-9.761-1.586-12.091c-1.07-2.279-2.44-3.768-4.146-4.371C1532.656,4479.757,1529.35,4479.399,1524.436,4479.324z
			 M1524.436,4548.759v51.381c6.742-0.238,11.032-1.273,12.883-3.172c1.85-1.898,2.775-6.537,2.775-13.96v-17.14
			c0-7.854-0.829-12.612-2.5-14.272C1535.936,4549.936,1531.55,4548.976,1524.436,4548.759z"/>
	</g>
</g>
</svg>
