<?xml version="1.0" encoding="utf-8"?>
<!-- Generator: Adobe Illustrator 16.0.0, SVG Export Plug-In . SVG Version: 6.00 Build 0)  -->
<!DOCTYPE svg PUBLIC "-//W3C//DTD SVG 1.1//EN" "http://www.w3.org/Graphics/SVG/1.1/DTD/svg11.dtd">
<svg version="1.1" id="Layer_1" xmlns="http://www.w3.org/2000/svg" xmlns:xlink="http://www.w3.org/1999/xlink" x="0px" y="0px"
	 width="2762.468px" height="1592.327px" viewBox="0 0 2762.468 1592.327" enable-background="new 0 0 2762.468 1592.327"
	 xml:space="preserve">
<ellipse fill="#58595B" cx="1384.133" cy="349.84" rx="1380.614" ry="1242.486"/>
<rect y="-642.539" fill="#58595B" width="2762.468" height="1026.02"/>
<g>
	<g>
		<path fill="#F47524" stroke="#F47524" stroke-width="0.6254" stroke-miterlimit="10" d="M1235.741,1388.059
			c0,5.055-1.644,9.163-4.94,12.351c-3.298,3.212-7.479,4.802-12.524,4.802h-62.313c-5.047,0-9.17-1.59-12.37-4.802
			c-3.188-3.188-4.793-7.296-4.793-12.351v-207.652c0-5.056,1.604-9.177,4.793-12.369c3.2-3.206,7.323-4.785,12.37-4.785h62.313
			c5.046,0,9.227,1.579,12.524,4.785c3.297,3.192,4.94,7.313,4.94,12.369v56.285h-21.638v-54.437h-53.813v203.936h53.813v-59.533
			h21.638V1388.059z"/>
		<path fill="#F47524" stroke="#F47524" stroke-width="0.6254" stroke-miterlimit="10" d="M1370.878,1405.211h-21.336l-8.507-53.791
			h-48.087l-8.5,53.791h-20.722v-0.603l43.138-241.977h21.188L1370.878,1405.211z M1338.254,1332.4l-21.181-131.123L1295.74,1332.4
			H1338.254z"/>
		<path fill="#F47524" stroke="#F47524" stroke-width="0.6254" stroke-miterlimit="10" d="M1502.916,1405.211h-22.569
			l-44.995-129.563l2.938-4.337h38.343v-89.057h-55.194v222.956h-21.492v-241.959h81.023c5.047,0,9.168,1.579,12.358,4.785
			c3.199,3.192,4.795,7.313,4.795,12.369v91.839c0,11.646-7.837,17.485-23.493,17.485c-1.547,0-3.813-0.104-6.809-0.236
			c-2.994-0.156-5.154-0.234-6.494-0.234C1475.24,1327.808,1489.107,1366.454,1502.916,1405.211z"/>
		<path fill="#F47524" stroke="#F47524" stroke-width="0.6254" stroke-miterlimit="10" d="M1627.513,1388.059
			c0,5.055-1.575,9.163-4.727,12.351c-3.141,3.212-7.234,4.802-12.282,4.802h-60.922c-5.046,0-9.2-1.59-12.448-4.802
			c-3.247-3.188-4.871-7.296-4.871-12.351v-61.401h21.492v59.533h52.267v-57.666l-66.796-80.711
			c-4.639-5.561-6.963-11.688-6.963-18.394v-49.014c0-5.056,1.624-9.177,4.871-12.369c3.248-3.206,7.402-4.785,12.448-4.785h60.922
			c5.048,0,9.142,1.579,12.282,4.785c3.151,3.192,4.727,7.313,4.727,12.369v56.285h-21.491v-54.437h-52.267v51.032l67.106,80.711
			c4.425,5.351,6.651,11.376,6.651,18.088V1388.059z"/>
	</g>
	<g>
		<path fill-rule="evenodd" clip-rule="evenodd" fill="#FFFFFF" d="M1639.357,937.785c38.645-25.438,53.221-35.023,95.309-62.721
			c-234.608-16.473-466.445-15.635-702.502-0.289c42.659,27.733,47.705,30.999,87.07,56.593
			c-0.974,1.729,43.642,35.807,42.67,37.536c-48.271-20.033-107.822-50.122-156.095-70.173
			c-119.347-49.61-245.207-67.077-372.878-75.904c-14.383-0.976-29.066-3.073-42.767-7.356
			c-26.986-8.399-31.313-27.655-9.035-45.664c36.059-29.131,79.663-33.258,123.606-28.372c8.897,0.988,19.312,14.37,23.805,24.365
			c17.728,39.386,50.79,46.291,76.473,12.954c94.733-122.971,220.926-186.511,374.309-192.795
			c129.556-5.308,259.451-7.953,389.059-5.133c160.12,3.464,292.72,68.028,392.997,195.476
			c29.366,37.307,59.036,30.848,79.661-13.05c4.844-10.285,19.896-24.172,28.24-22.949c38.127,5.718,76.025,14.725,112.908,26.1
			c8.538,2.627,18.709,20.208,17.23,29.119c-1.35,8.381-16.395,18.997-26.672,20.611c-42.953,6.79-86.265,12.291-129.655,15.075
			c-133.778,8.598-255.981,56.689-377.469,107.746c-15.783,6.634-64.589,32.089-80.283,38.916
			C1584.259,975.941,1640.437,939.694,1639.357,937.785z M1640.991,624.14c21.51,36.053,29.884,52.201,0.808,81.994
			c-20.946,21.431-42.972,42.688-59.551,67.372c-21.501,31.993-11.398,53.074,26.848,59.431c23.368,3.91,47.648,2.235,71.514,3.115
			c84.153,3.072,160.187-6.652,244.225-26.824C1863.337,698.453,1774.233,623.417,1640.991,624.14z"/>
		<path fill="#FFFFFF" d="M2039.902,1161.463c0,0,1.03-0.386,2.985-1.145c1.965-0.705,4.852-1.886,8.276-3.543
			c3.47-1.494,7.544-3.868,12.242-6.32c4.617-2.681,9.713-5.813,15.207-9.356c5.438-3.598,11.184-7.718,17.223-12.116
			c5.971-4.453,11.989-9.49,18.223-14.623c6.107-5.29,12.156-11.025,17.981-17.021c5.989-5.893,11.211-12.484,15.967-19.172
			c2.159-3.404,4.482-6.772,6.019-10.291l0.652-1.282l0.34-0.64l0.165-0.331l0.049-0.078c-0.544,1.554-0.146,0.367-0.253,0.698
			l0.06-0.192l0.923-3.169l1.839-6.284c1.507-4.338,1.563-7.978,2.392-11.827l0.982-5.676c0.145-2.024,0.28-4.049,0.437-6.03
			c0.738-7.936,0.864-15.773,0.974-23.239c-0.069-7.452-0.235-14.568-0.428-21.142c-0.478-6.556-0.506-12.641-0.934-18.009
			c-0.331-5.368-0.623-10.073-0.866-13.966c-0.535-7.742-0.701-12.23-0.701-12.23s1.497,4.217,3.842,11.664
			c2.237,7.488,5.224,18.262,7.779,31.486c1.207,6.615,2.45,13.834,3.219,21.57c0.712,7.742,1.556,15.93,1.168,24.582
			c-0.029,2.162-0.04,4.319-0.067,6.519c-0.244,2.296-0.498,4.591-0.73,6.905c-0.584,4.566-0.865,9.682-2.228,13.634l-1.711,6.32
			l-0.847,3.188l-0.067,0.192l-0.31,0.916l-0.039,0.097l-0.197,0.428l-0.396,0.838l-0.788,1.675
			c-1.966,4.608-4.562,8.615-7.108,12.694c-5.641,7.646-11.641,14.821-18.225,21.027c-6.379,6.459-13.419,11.846-20.109,17.117
			c-6.835,5.091-13.749,9.567-20.422,13.532c-6.678,4.024-13.233,7.351-19.37,10.23c-6.138,2.898-11.97,5.098-17.172,6.923
			c-5.263,1.692-9.833,3.055-13.8,3.771c-3.859,0.976-6.904,1.151-8.985,1.361C2041,1161.368,2039.902,1161.463,2039.902,1161.463z"
			/>
		<path fill="#FFFFFF" d="M730.874,1161.463c0,0-1.106-0.096-3.188-0.313c-2.091-0.21-5.135-0.386-9.004-1.361
			c-3.959-0.717-8.539-2.079-13.791-3.771c-5.201-1.825-11.035-4.007-17.163-6.923c-6.145-2.88-12.71-6.206-19.37-10.213
			c-6.68-3.982-13.604-8.459-20.422-13.55c-6.709-5.271-13.74-10.658-20.119-17.117c-6.573-6.206-12.594-13.382-18.225-21.027
			c-2.545-4.061-5.152-8.086-7.105-12.694l-0.799-1.675l-0.379-0.838l-0.206-0.428l-0.048-0.097l-0.311-0.916l-0.048-0.192
			l-0.855-3.188l-1.702-6.32c-1.381-3.952-1.663-9.067-2.228-13.634c-0.252-2.314-0.496-4.609-0.74-6.905
			c-0.018-2.199-0.038-4.356-0.066-6.519c-0.379-8.652,0.468-16.84,1.157-24.582c0.786-7.736,2.021-14.955,3.229-21.57
			c2.547-13.225,5.543-23.998,7.78-31.486c2.352-7.447,3.831-11.664,3.831-11.664s-0.166,4.488-0.702,12.23
			c-0.232,3.893-0.524,8.598-0.854,13.966c-0.429,5.368-0.468,11.453-0.944,18.009c-0.183,6.573-0.349,13.689-0.436,21.142
			c0.126,7.466,0.253,15.304,0.999,23.239c0.137,1.981,0.284,4.006,0.428,6.03l0.993,5.676c0.818,3.85,0.875,7.489,2.383,11.827
			l1.838,6.284l0.924,3.169l0.059,0.192c0.253,0.741-0.321-0.897-0.243-0.698l0.039,0.078l0.166,0.331l0.33,0.64l0.661,1.301
			c1.527,3.5,3.86,6.868,6.019,10.272c4.756,6.706,9.978,13.279,15.967,19.172c5.825,5.995,11.884,11.73,17.972,17.021
			c6.243,5.133,12.262,10.188,18.241,14.623c6.01,4.398,11.768,8.519,17.214,12.14c5.484,3.52,10.589,6.652,15.208,9.333
			c4.687,2.452,8.763,4.826,12.243,6.32c3.433,1.657,6.31,2.838,8.275,3.543C729.833,1161.078,730.874,1161.463,730.874,1161.463z"
			/>
		<g>
			<line fill="#FFFFFF" x1="954.689" y1="1090.38" x2="1202.65" y2="1090.38"/>
			<rect x="954.689" y="1084.952" fill="#FFFFFF" width="247.961" height="10.852"/>
		</g>
		<g>
			<line fill="#FFFFFF" x1="1573.27" y1="1090.38" x2="1821.23" y2="1090.38"/>
			<rect x="1573.27" y="1084.952" fill="#FFFFFF" width="247.96" height="10.852"/>
		</g>
		<path fill="#FFFFFF" d="M2110.343,919.504c-11.784-7.157-35.765-7.875-46.764-0.445
			c-76.891,51.947-151.806,106.787-230.038,162.609c83.96-7.297,167.365-14.882,245.772-46.369
			c18.69-7.507,36.027-24.365,47.99-41.169C2142.541,972.694,2134.061,933.875,2110.343,919.504z M2108.7,979.659
			c-6.37,10.971-15.802,18.226-25.243,24.172c-9.58,5.839-19.574,10.152-29.154,13.285c-9.578,3.133-18.709,5.151-26.692,6.206
			c-7.915,1.224-14.675,1.44-19.43,1.44c-4.735-0.024-7.498-0.393-7.498-0.393s2.228-1.668,6.175-4.199
			c3.95-2.549,9.55-6.066,16.299-9.881c13.303-7.995,31.546-16.937,47.757-26.859c8.012-4.862,15.656-10.248,20.108-15.46
			c2.236-2.609,3.744-4.978,4.426-7.368c0.572-2.375,0.545-5.255-0.283-8.213c-1-2.916-2.382-5.832-3.918-8.398
			c-1.576-2.453-3.035-4.706-4.375-6.615c-2.938-3.676-4.465-6.008-4.465-6.008s2.714,0.621,7.188,2.121
			c2.168,0.934,5.046,2.078,8.021,3.965c1.479,1.012,3.034,2.102,4.688,3.229c1.526,1.404,3.14,2.916,4.676,4.766
			c2.986,3.754,5.884,9.008,6.43,15.581C2113.903,967.579,2111.812,974.254,2108.7,979.659z"/>
		<path fill="#FFFFFF" d="M646.146,994.13c11.951,16.804,29.281,33.662,47.979,41.169c78.407,31.487,161.823,39.072,245.782,46.369
			c-78.241-55.822-153.169-110.662-230.048-162.609c-10.998-7.43-34.969-6.712-46.763,0.445
			C639.369,933.875,630.909,972.694,646.146,994.13z M660.033,961.029c0.555-6.573,3.432-11.827,6.428-15.581
			c1.547-1.85,3.15-3.361,4.678-4.766c1.653-1.127,3.22-2.217,4.695-3.229c2.957-1.887,5.855-3.031,8.014-3.965
			c4.474-1.5,7.197-2.121,7.197-2.121s-1.528,2.332-4.474,6.008c-1.343,1.909-2.792,4.162-4.376,6.615
			c-1.547,2.566-2.917,5.482-3.919,8.398c-0.827,2.958-0.846,5.838-0.272,8.213c0.672,2.391,2.188,4.759,4.416,7.368
			c4.453,5.212,12.086,10.598,20.117,15.46c16.201,9.923,34.445,18.864,47.758,26.859c6.748,3.814,12.35,7.332,16.288,9.881
			c3.946,2.531,6.185,4.199,6.185,4.199s-2.762,0.368-7.507,0.393c-4.745,0-11.514-0.217-19.42-1.44
			c-7.984-1.055-17.115-3.073-26.692-6.206c-9.589-3.133-19.586-7.446-29.164-13.285c-9.424-5.946-18.875-13.201-25.245-24.172
			C661.637,974.254,659.537,967.579,660.033,961.029z"/>
		<path fill="#FFFFFF" d="M1309.675,1135.501h-44.702c-15.54,0-25.83-0.897-30.847-2.663c-5.018-1.771-8.676-5.079-10.969-9.923
			c-2.295-4.819-3.442-12.273-3.442-22.305v-13.791c0-9.664,1.594-16.84,4.774-21.527c3.179-4.688,9.237-8.032,18.175-10.056
			c-8.013-1.832-13.39-4.477-16.113-7.899c-2.724-3.422-4.086-9.472-4.086-18.165c0-12.834,1.927-22.13,5.788-27.926
			c3.851-5.797,8.917-9.61,15.189-11.515c6.271-1.903,15.498-2.837,27.675-2.837h38.558V1135.501z M1262.998,1013.127
			c-1.381,0.488-2.49,1.693-3.354,3.543c-0.854,1.886-1.283,5.133-1.283,9.785c0,8.808,0.524,14.152,1.556,16.02
			c1.051,1.868,3.461,2.783,7.254,2.783c0.924,0,2.207,0.061,3.851,0.115v-33.06
			C1267.052,1012.369,1264.369,1012.664,1262.998,1013.127z M1260.381,1070.792c-1.341,1.345-2.021,5.194-2.021,11.557v13.863
			c0,6.013,0.747,9.767,2.255,11.304c1.499,1.536,4.97,2.373,10.405,2.566v-41.585
			C1265.274,1068.672,1261.734,1069.456,1260.381,1070.792z"/>
		<path fill="#FFFFFF" d="M1442.78,986.895v148.606h-33.782l-0.048-100.316l-13.447,100.316h-23.962l-14.177-98.038l-0.05,98.038
			h-33.783V986.895h50.013c1.479,8.923,3.005,19.448,4.579,31.582l5.494,37.808l8.879-69.39H1442.78z"/>
		<path fill="#FFFFFF" d="M1458.292,986.895h38.557c12.175,0,21.403,0.934,27.675,2.837c6.272,1.904,11.328,5.718,15.2,11.515
			c3.85,5.796,5.774,15.092,5.774,27.926c0,8.693-1.361,14.743-4.083,18.165c-2.722,3.423-8.091,6.067-16.112,7.899
			c8.935,2.023,14.993,5.368,18.174,10.056c3.188,4.688,4.774,11.863,4.774,21.527v13.791c0,10.031-1.147,17.485-3.442,22.305
			c-2.296,4.844-5.941,8.151-10.969,9.923c-5.02,1.766-15.298,2.663-30.845,2.663h-44.703V986.895z M1496.936,1012.314v33.06
			c1.652-0.055,2.936-0.115,3.858-0.115c3.794,0,6.206-0.915,7.246-2.783c1.04-1.867,1.566-7.212,1.566-16.02
			c0-4.652-0.428-7.899-1.284-9.785c-0.866-1.85-1.974-3.055-3.355-3.543C1503.587,1012.664,1500.913,1012.369,1496.936,1012.314z
			 M1496.936,1068.498v41.585c5.454-0.193,8.926-1.03,10.423-2.566c1.498-1.537,2.248-5.291,2.248-11.304v-13.863
			c0-6.362-0.672-10.212-2.025-11.557C1506.242,1069.456,1502.693,1068.672,1496.936,1068.498z"/>
	</g>
</g>
<g>
	<path fill="#FFFFFF" d="M570.383,506.832h-54.198V245.886h85.646c10.704,0,21.41,0.952,32.116,2.843
		c10.706,1.898,20.408,5.688,29.106,11.375c8.698,5.687,15.776,13.774,21.244,24.255c5.463,10.486,8.196,24.422,8.196,41.819v6.691
		c0,17.396-2.733,31.396-8.196,41.986c-5.468,10.596-12.546,18.735-21.244,24.422s-18.4,9.425-29.106,11.208
		c-10.706,1.788-21.412,2.676-32.116,2.676h-31.448V506.832z M604.172,366.325c3.565,0,7.36-0.445,11.375-1.338
		c4.015-0.889,7.638-2.619,10.873-5.186c3.23-2.561,5.907-6.131,8.029-10.705c2.117-4.569,3.179-10.539,3.179-17.899v-3.345
		c0-7.36-1.062-13.325-3.179-17.899c-2.122-4.569-4.799-8.139-8.029-10.706c-3.235-2.562-6.858-4.292-10.873-5.186
		c-4.015-0.889-7.81-1.338-11.375-1.338h-33.789v73.602H604.172z"/>
	<path fill="#FFFFFF" d="M809.588,511.187c-16.953,0-31.673-2.457-44.161-7.36c-12.494-4.903-22.808-12.545-30.946-22.917
		c-8.144-10.372-14.219-23.639-18.233-39.812c-4.015-16.168-6.021-35.515-6.021-58.045V369.67c0-22.525,2.007-41.872,6.021-58.045
		c4.015-16.168,10.09-29.441,18.233-39.812c8.139-10.371,18.452-18.008,30.946-22.917c12.488-4.903,27.208-7.36,44.161-7.36
		c16.947,0,31.667,2.457,44.16,7.36c12.489,4.908,22.859,12.545,31.114,22.917c8.249,10.371,14.386,23.644,18.4,39.812
		c4.015,16.173,6.021,35.52,6.021,58.045v13.382c0,22.53-2.007,41.877-6.021,58.045c-4.015,16.173-10.151,29.44-18.4,39.812
		c-8.255,10.371-18.625,18.013-31.114,22.917C841.255,508.729,826.536,511.187,809.588,511.187z M811.26,464.349
		c8.249,0,15.165-1.783,20.742-5.353c5.573-3.565,9.979-8.808,13.215-15.724c3.231-6.911,5.521-15.39,6.859-25.426
		c1.338-10.037,2.007-21.631,2.007-34.794V369.67c0-12.933-0.669-24.475-2.007-34.626c-1.339-10.146-3.628-18.677-6.859-25.593
		c-3.235-6.911-7.642-12.154-13.215-15.724c-5.577-3.565-12.493-5.353-20.742-5.353h-3.011c-8.479,0-15.446,1.788-20.909,5.353
		c-5.468,3.57-9.869,8.813-13.215,15.724c-3.346,6.916-5.688,15.447-7.025,25.593c-1.339,10.152-2.008,21.694-2.008,34.626v13.382
		c0,13.163,0.669,24.757,2.008,34.794c1.338,10.036,3.68,18.515,7.025,25.426c3.346,6.916,7.747,12.159,13.215,15.724
		c5.463,3.57,12.431,5.353,20.909,5.353H811.26z"/>
	<path fill="#FFFFFF" d="M1084.921,245.886v181.328c0,26.544-6.022,47.172-18.066,61.893c-12.043,14.72-31.896,22.081-59.55,22.081
		c-14.501,0-26.654-1.897-36.467-5.688c-9.816-3.79-17.731-9.253-23.753-16.393c-6.021-7.136-10.371-16.001-13.048-26.597
		c-2.676-10.59-4.015-22.582-4.015-35.964v-8.698h51.188c0,15.389,1.725,26.989,5.185,34.793c3.456,7.81,9.979,11.709,19.572,11.709
		c9.812,0,16.393-3.79,19.738-11.375c3.346-7.58,5.019-18.4,5.019-32.452V245.886H1084.921z"/>
	<path fill="#FFFFFF" d="M1242.495,245.216l65.237,261.616h-57.877l-12.713-56.2h-63.9l-12.378,56.2h-58.212l65.237-261.616
		H1242.495z M1183.613,403.794h42.823l-21.412-96.017L1183.613,403.794z"/>
	<path fill="#FFFFFF" d="M1429.841,292.389H1382h-52.859v-46.503h166.942v37.303l-104.046,177.146h47.841h59.55v46.502h-173.632
		v-37.135L1429.841,292.389z"/>
	<path fill="#FFFFFF" d="M1721.57,383.052c0,22.53-2.121,41.652-6.355,57.376c-4.24,15.724-10.764,28.494-19.571,38.306
		c-8.813,9.817-20.188,16.952-34.125,21.411c-13.941,4.464-30.611,6.691-50.016,6.691h-79.958V245.886h79.958
		c19.404,0,36.074,2.232,50.016,6.691c13.937,4.464,25.312,11.6,34.125,21.412c8.808,9.817,15.331,22.582,19.571,38.306
		c4.234,15.724,6.355,34.851,6.355,57.376V383.052z M1608.492,460c11.374,0,20.742-1.558,28.103-4.684
		c7.36-3.121,13.267-7.862,17.731-14.218c4.459-6.357,7.58-14.329,9.367-23.921c1.782-9.587,2.676-20.961,2.676-34.125V369.67
		c0-12.933-0.894-24.255-2.676-33.957c-1.787-9.702-4.908-17.731-9.367-24.088c-4.465-6.356-10.371-11.093-17.731-14.219
		c-7.36-3.121-16.729-4.684-28.103-4.684h-22.75V460H1608.492z"/>
	<path fill="#FFFFFF" d="M1847.027,511.187c-16.953,0-31.673-2.457-44.161-7.36c-12.493-4.903-22.808-12.545-30.946-22.917
		c-8.144-10.372-14.219-23.639-18.233-39.812c-4.015-16.168-6.021-35.515-6.021-58.045V369.67c0-22.525,2.007-41.872,6.021-58.045
		c4.015-16.168,10.09-29.441,18.233-39.812c8.139-10.371,18.453-18.008,30.946-22.917c12.488-4.903,27.208-7.36,44.161-7.36
		c16.947,0,31.667,2.457,44.16,7.36c12.489,4.908,22.859,12.545,31.114,22.917c8.249,10.371,14.386,23.644,18.4,39.812
		c4.015,16.173,6.022,35.52,6.022,58.045v13.382c0,22.53-2.008,41.877-6.022,58.045c-4.015,16.173-10.151,29.44-18.4,39.812
		c-8.255,10.371-18.625,18.013-31.114,22.917C1878.694,508.729,1863.974,511.187,1847.027,511.187z M1848.699,464.349
		c8.249,0,15.166-1.783,20.742-5.353c5.573-3.565,9.98-8.808,13.216-15.724c3.23-6.911,5.52-15.39,6.858-25.426
		c1.338-10.037,2.008-21.631,2.008-34.794V369.67c0-12.933-0.67-24.475-2.008-34.626c-1.339-10.146-3.628-18.677-6.858-25.593
		c-3.235-6.911-7.643-12.154-13.216-15.724c-5.576-3.565-12.493-5.353-20.742-5.353h-3.011c-8.479,0-15.446,1.788-20.909,5.353
		c-5.468,3.57-9.869,8.813-13.215,15.724c-3.346,6.916-5.688,15.447-7.025,25.593c-1.339,10.152-2.007,21.694-2.007,34.626v13.382
		c0,13.163,0.668,24.757,2.007,34.794c1.338,10.036,3.68,18.515,7.025,25.426c3.346,6.916,7.747,12.159,13.215,15.724
		c5.463,3.57,12.431,5.353,20.909,5.353H1848.699z M1894.534,189.012l-21.412,36.801h-52.19l18.4-36.801H1894.534z"/>
	<path fill="#FFFFFF" d="M2116.337,307.783l-37.804,199.723h-69.253l-43.157-261.62h56.54l25.091,187.689l35.129-187.689h67.245
		l35.127,187.689l25.092-187.689h56.54l-43.157,261.62h-69.588L2116.337,307.783z"/>
</g>
<g>
	<path fill="#FFFFFF" d="M565.004,114.734c-7.649-1.075-14.282-2.568-19.897-4.481c-5.619-1.91-10.279-4.451-13.982-7.618
		c-3.705-3.165-6.453-7.05-8.245-11.652c-1.793-4.599-2.689-10.066-2.689-16.402v-1.972c0-12.666,4.213-22.765,12.638-30.294
		s20.643-11.293,36.657-11.293c17.209,0,29.757,3.916,37.645,11.741c7.887,7.829,11.83,19.928,11.83,36.299v3.764H589.92
		c0-9.201-1.524-15.954-4.571-20.256c-3.047-4.302-8.276-6.453-15.685-6.453h-1.613c-5.856,0-10.396,1.434-13.623,4.302
		c-3.227,2.868-4.84,6.573-4.84,11.113v0.896c0,2.509,0.327,4.75,0.985,6.722c0.655,1.972,1.883,3.706,3.675,5.199
		c1.792,1.496,4.271,2.75,7.438,3.764c3.166,1.017,7.319,1.882,12.459,2.6c7.646,1.075,14.341,2.571,20.076,4.481
		c5.736,1.914,10.515,4.454,14.341,7.618c3.823,3.168,6.69,7.081,8.604,11.742c1.91,4.661,2.867,10.217,2.867,16.67v1.792
		c0,13.506-4.302,23.961-12.905,31.37c-8.604,7.411-21.153,11.114-37.645,11.114s-29.011-3.854-37.554-11.562
		c-8.545-7.708-12.816-19.987-12.816-36.837v-1.613h29.039c0,8.845,1.731,15.209,5.199,19.091c3.464,3.885,8.604,5.826,15.415,5.826
		h1.613c6.813,0,11.858-1.583,15.147-4.75c3.285-3.165,4.93-7.081,4.93-11.741v-0.896c0-2.509-0.39-4.75-1.165-6.722
		c-0.779-1.972-2.124-3.703-4.034-5.199c-1.913-1.493-4.512-2.748-7.797-3.764C574.173,116.319,570.023,115.451,565.004,114.734z"/>
	<path fill="#FFFFFF" d="M690.482,173.168h-29.039V58.448h-32.266V33.353h93.75v25.096h-32.445V173.168z"/>
	<path fill="#FFFFFF" d="M785.305,175.501c-9.562,0-17.538-0.986-23.93-2.958c-6.395-1.972-11.534-4.93-15.416-8.874
		c-3.885-3.943-6.663-8.811-8.335-14.609c-1.676-5.795-2.51-12.517-2.51-20.166V33.353h29.039V128c0,7.528,1.462,13.146,4.392,16.85
		c2.927,3.706,8.515,5.557,16.76,5.557c8.246,0,13.862-1.851,16.851-5.557c2.985-3.703,4.481-9.321,4.481-16.85V33.353h29.04v95.543
		c0,7.649-0.838,14.371-2.511,20.166c-1.674,5.798-4.481,10.666-8.425,14.609c-3.943,3.944-9.142,6.902-15.596,8.874
		C802.694,174.516,794.745,175.501,785.305,175.501z"/>
	<path fill="#FFFFFF" d="M956.672,106.847c0,12.071-1.138,22.317-3.406,30.742c-2.271,8.425-5.768,15.267-10.486,20.524
		c-4.723,5.26-10.817,9.083-18.284,11.473c-7.47,2.392-16.401,3.585-26.798,3.585h-42.843V33.353h42.843
		c10.396,0,19.328,1.196,26.798,3.585c7.467,2.392,13.562,6.215,18.284,11.473c4.719,5.26,8.215,12.1,10.486,20.524
		c2.269,8.425,3.406,18.673,3.406,30.742V106.847z M896.083,148.076c6.095,0,11.114-0.835,15.058-2.509
		c3.944-1.672,7.108-4.213,9.5-7.619c2.39-3.406,4.063-7.677,5.021-12.817c0.954-5.137,1.434-11.231,1.434-18.284v-7.17
		c0-6.929-0.479-12.996-1.434-18.194c-0.958-5.198-2.631-9.5-5.021-12.906c-2.392-3.406-5.556-5.943-9.5-7.618
		c-3.943-1.672-8.963-2.51-15.058-2.51h-12.189v89.627H896.083z"/>
	<path fill="#FFFFFF" d="M1003.636,173.171h-29.04V33.353h29.04V173.171z"/>
	<path fill="#FFFFFF" d="M1074.619,175.501c-9.083,0-16.97-1.316-23.661-3.943c-6.694-2.627-12.221-6.722-16.582-12.279
		c-4.363-5.557-7.618-12.665-9.769-21.331c-2.151-8.663-3.227-19.029-3.227-31.101v-7.17c0-12.069,1.075-22.435,3.227-31.101
		c2.15-8.663,5.405-15.774,9.769-21.332c4.361-5.557,9.888-9.648,16.582-12.279c6.691-2.627,14.578-3.943,23.661-3.943
		c9.08,0,16.968,1.316,23.662,3.943c6.691,2.63,12.247,6.722,16.671,12.279c4.419,5.557,7.707,12.669,9.858,21.332
		c2.151,8.666,3.227,19.032,3.227,31.101v7.17c0,12.071-1.075,22.438-3.227,31.101c-2.151,8.666-5.439,15.774-9.858,21.331
		c-4.424,5.557-9.979,9.652-16.671,12.279C1091.586,174.185,1083.699,175.501,1074.619,175.501z M1075.515,150.406
		c4.419,0,8.125-0.955,11.113-2.868c2.986-1.911,5.348-4.72,7.081-8.425c1.73-3.703,2.957-8.246,3.675-13.624
		c0.717-5.377,1.074-11.59,1.074-18.642v-7.17c0-6.929-0.357-13.113-1.074-18.553c-0.718-5.437-1.944-10.007-3.675-13.713
		c-1.733-3.703-4.095-6.512-7.081-8.425c-2.988-1.91-6.694-2.868-11.113-2.868h-1.613c-4.543,0-8.277,0.958-11.203,2.868
		c-2.931,1.913-5.289,4.722-7.081,8.425c-1.792,3.706-3.048,8.276-3.765,13.713c-0.717,5.439-1.075,11.624-1.075,18.553v7.17
		c0,7.052,0.358,13.265,1.075,18.642c0.717,5.378,1.973,9.921,3.765,13.624c1.792,3.706,4.15,6.515,7.081,8.425
		c2.926,1.913,6.66,2.868,11.203,2.868H1075.515z"/>
	<path fill="#FFFFFF" d="M1209.953,173.168h-29.039V33.353h45.89c5.736,0,11.473,0.51,17.208,1.524
		c5.737,1.017,10.935,3.047,15.596,6.094c4.66,3.047,8.453,7.38,11.382,12.996c2.928,5.619,4.393,13.086,4.393,22.407v3.585
		c0,9.321-1.465,16.822-4.393,22.496c-2.929,5.677-6.722,10.039-11.382,13.086c-4.661,3.047-9.858,5.05-15.596,6.005
		c-5.735,0.958-11.472,1.434-17.208,1.434h-16.851V173.168z M1228.058,97.884c1.91,0,3.943-0.238,6.095-0.717
		c2.151-0.476,4.092-1.403,5.826-2.778c1.73-1.373,3.164-3.286,4.302-5.736c1.135-2.448,1.702-5.646,1.702-9.59V77.27
		c0-3.943-0.567-7.139-1.702-9.59c-1.138-2.448-2.571-4.361-4.302-5.736c-1.734-1.373-3.675-2.3-5.826-2.778
		c-2.151-0.477-4.185-0.717-6.095-0.717h-18.105v39.436H1228.058z"/>
	<path fill="#FFFFFF" d="M1320.014,173.171h-29.039V33.353h29.039V173.171z"/>
	<path fill="#FFFFFF" d="M1426.311,33.353v25.096h-56.465V89.28h47.502v25.095h-47.502v33.7h56.465v25.096h-85.505V33.353H1426.311z
		"/>
	<path fill="#FFFFFF" d="M1443.518,173.171V33.353h29.04v114.723h51.625v25.096H1443.518z"/>
	<path fill="#FFFFFF" d="M1622.414,33.353v25.096h-56.465V89.28h47.503v25.095h-47.503v33.7h56.465v25.096h-0.178
		c-3.469,1.552-6.186,3.316-8.157,5.288s-2.958,4.33-2.958,7.081c0,1.91,0.688,3.464,2.063,4.661
		c1.371,1.193,3.254,1.792,5.646,1.792c1.672,0,3.165-0.21,4.481-0.625c1.313-0.42,2.329-0.869,3.047-1.345l6.453,17.208
		c-1.913,1.193-4.543,2.238-7.888,3.137c-3.347,0.893-6.872,1.341-10.576,1.341c-7.29,0-13.146-1.585-17.566-4.75
		c-4.423-3.167-6.632-8.038-6.632-14.609c0-3.826,0.717-7.35,2.151-10.576c1.434-3.226,3.343-6.095,5.735-8.604h-61.126V33.353
		H1622.414z"/>
	<path fill="#FFFFFF" d="M1691.965,175.501c-9.563,0-17.809-1.316-24.737-3.943c-6.933-2.627-12.669-6.722-17.209-12.279
		c-4.543-5.557-7.918-12.665-10.127-21.331c-2.213-8.663-3.317-19.029-3.317-31.101v-7.17c0-12.069,1.104-22.435,3.317-31.101
		c2.209-8.663,5.525-15.774,9.947-21.332c4.42-5.557,9.978-9.648,16.671-12.279c6.691-2.627,14.579-3.943,23.662-3.943
		c8.363,0,15.713,0.896,22.048,2.688c6.333,1.793,11.652,4.661,15.953,8.604c4.303,3.943,7.529,9.024,9.681,15.236
		c2.151,6.215,3.227,13.686,3.227,22.407v6.453h-29.039c0-4.778-0.3-9.052-0.896-12.817c-0.6-3.765-1.675-6.929-3.227-9.5
		c-1.555-2.568-3.615-4.54-6.185-5.916c-2.571-1.372-5.887-2.061-9.948-2.061h-1.613c-4.781,0-8.725,0.958-11.831,2.868
		c-3.108,1.913-5.557,4.722-7.35,8.425c-1.792,3.706-3.047,8.276-3.764,13.713c-0.718,5.439-1.076,11.624-1.076,18.553v7.17
		c0,7.052,0.358,13.265,1.076,18.642c0.717,5.378,1.999,9.921,3.854,13.624c1.852,3.706,4.393,6.515,7.618,8.425
		c3.227,1.913,7.409,2.868,12.548,2.868h1.613c4.182,0,7.856-0.507,11.023-1.523c3.166-1.014,5.826-2.299,7.978-3.854v-22.407
		h-18.463V97.526h47.502v61.666c-2.63,2.151-5.498,4.213-8.604,6.185c-3.108,1.972-6.632,3.703-10.575,5.196
		c-3.944,1.496-8.366,2.688-13.265,3.585C1703.554,175.053,1698.06,175.501,1691.965,175.501z"/>
	<path fill="#FFFFFF" d="M1862.613,173.171h-30.652l-45.172-86.759l0.896,28.143v58.616h-27.427V33.353h30.653l44.992,86.759
		l-0.896-28.143V33.353h27.605V173.171z"/>
	<path fill="#FFFFFF" d="M1950.088,32.994l34.955,140.174h-31.011l-6.812-30.112h-34.238l-6.633,30.112h-31.189l34.954-140.174
		H1950.088z M1918.541,117.961h22.943l-11.472-51.446L1918.541,117.961z"/>
	<path fill="#FFFFFF" d="M2021.791,106.847c0,7.052,0.328,13.265,0.986,18.642c0.655,5.378,1.852,9.921,3.585,13.624
		c1.731,3.706,4.093,6.515,7.08,8.425c2.986,1.913,6.813,2.868,11.473,2.868h1.613c7.05,0,12.038-2.269,14.968-6.812
		c2.927-4.54,4.392-10.576,4.392-18.105h29.04v1.613c0,17.208-4.186,29.577-12.549,37.106c-8.365,7.529-20.855,11.293-37.464,11.293
		c-9.083,0-16.939-1.316-23.571-3.943c-6.633-2.627-12.1-6.722-16.402-12.279c-4.303-5.557-7.47-12.665-9.501-21.331
		c-2.033-8.663-3.047-19.029-3.047-31.101v-7.17c0-12.069,1.014-22.435,3.047-31.101c2.031-8.663,5.198-15.774,9.501-21.332
		c4.303-5.557,9.77-9.648,16.402-12.279c6.632-2.627,14.488-3.943,23.571-3.943c16.608,0,29.099,3.795,37.464,11.383
		c8.363,7.59,12.549,20.107,12.549,37.554v6.453h-29.04c0-4.778-0.3-9.052-0.896-12.817c-0.6-3.765-1.614-6.929-3.048-9.5
		c-1.435-2.568-3.406-4.54-5.915-5.916c-2.51-1.372-5.678-2.061-9.501-2.061h-1.613c-4.66,0-8.486,0.958-11.473,2.868
		c-2.987,1.913-5.349,4.722-7.08,8.425c-1.733,3.706-2.93,8.276-3.585,13.713c-0.658,5.439-0.986,11.624-0.986,18.553V106.847z"/>
	<path fill="#FFFFFF" d="M2189.035,33.353v97.156c0,14.223-3.228,25.275-9.681,33.162c-6.453,7.888-17.091,11.831-31.907,11.831
		c-7.77,0-14.281-1.017-19.539-3.047c-5.26-2.031-9.5-4.958-12.727-8.784c-3.227-3.823-5.557-8.573-6.991-14.25
		c-1.435-5.674-2.151-12.1-2.151-19.27v-4.661h27.426c0,8.246,0.925,14.461,2.779,18.643c1.852,4.185,5.347,6.274,10.486,6.274
		c5.257,0,8.783-2.03,10.575-6.095c1.794-4.061,2.689-9.859,2.689-17.387V33.353H2189.035z"/>
	<path fill="#FFFFFF" d="M2238.147,173.171h-29.039V33.353h29.039V173.171z"/>
</g>
</svg>
